<?xml version="1.0" standalone="no"?>
<!DOCTYPE svg PUBLIC "-//W3C//DTD SVG 20010904//EN"
 "http://www.w3.org/TR/2001/REC-SVG-20010904/DTD/svg10.dtd">
<svg version="1.0" xmlns="http://www.w3.org/2000/svg"
 width="244.000000pt" height="300.000000pt" viewBox="0 0 244.000000 300.000000"
 preserveAspectRatio="xMidYMid meet">
<metadata>
Created by potrace 1.10, written by Peter Selinger 2001-2011
</metadata>
<g transform="translate(0.000000,300.000000) scale(0.100000,-0.100000)"
fill="#e6ccff" stroke="none">
<path d="M117 2965 c9 -19 21 -35 25 -35 5 0 3 10 -4 23 -7 12 -11 25 -10 29
1 3 -5 9 -13 12 -12 4 -11 -1 2 -29z"/>
<path d="M346 2981 c-39 -17 -91 -16 -170 4 -19 5 -27 4 -23 -2 8 -12 57 -25
111 -27 30 -2 47 -11 82 -45 24 -23 48 -40 53 -37 5 3 19 -15 32 -42 31 -65
31 -177 0 -221 -22 -30 -78 -50 -100 -36 -17 10 -13 45 5 45 8 0 12 -4 9 -10
-3 -5 -2 -10 4 -10 17 0 21 17 7 30 -11 8 -20 9 -35 0 -24 -12 -27 -42 -6 -60
19 -15 86 -9 103 10 11 13 12 10 6 -15 -14 -59 -11 -80 14 -83 l24 -4 -21 21
c-16 16 -18 26 -11 48 5 15 16 50 24 76 42 129 -4 253 -120 324 -19 11 -19 11
1 18 41 13 80 34 65 34 -8 0 -33 -8 -54 -18z m49 -91 c3 -5 1 -10 -4 -10 -6 0
-11 5 -11 10 0 6 2 10 4 10 3 0 8 -4 11 -10z"/>
<path d="M519 2989 c-37 -14 -53 -53 -37 -87 11 -23 20 -27 53 -27 36 0 40 3
43 28 4 29 -21 48 -40 29 -16 -16 0 -36 18 -21 11 9 14 8 14 -4 0 -9 -5 -19
-11 -22 -17 -11 -57 4 -64 24 -6 20 14 73 25 66 4 -2 16 2 26 10 22 16 11 18
-27 4z"/>
<path d="M730 2985 c16 -19 51 -19 76 0 23 18 14 19 -21 3 -19 -9 -28 -9 -37
0 -17 17 -33 15 -18 -3z"/>
<path d="M894 2976 c-3 -14 -24 -41 -45 -61 -30 -27 -48 -35 -78 -35 -40 0
-97 -16 -119 -33 -22 -17 -6 -18 34 -1 53 22 144 20 193 -5 68 -35 106 -124
77 -180 -17 -32 -45 -46 -76 -36 -11 4 -20 2 -20 -4 0 -21 50 -24 71 -5 20 18
20 18 15 -9 -2 -15 -7 -31 -10 -36 -10 -16 13 -61 30 -61 16 0 16 2 0 19 -17
19 -17 24 -1 100 11 48 15 94 11 115 -10 51 -70 112 -120 121 -35 7 -37 9 -20
19 47 26 87 63 101 91 14 30 14 30 -17 -5 -30 -35 -30 -35 -20 -6 6 16 8 31 6
34 -3 2 -8 -7 -12 -22z"/>
<path d="M1129 2974 c30 -39 27 -78 -8 -103 -35 -25 -68 -27 -99 -5 -24 17
-29 53 -10 72 17 17 55 15 62 -4 8 -22 -3 -33 -14 -14 -11 18 -24 6 -16 -15 7
-20 25 -16 40 8 15 23 -4 51 -35 55 -30 4 -69 -31 -69 -62 0 -32 42 -67 84
-71 30 -3 42 2 71 30 30 28 35 37 29 62 -9 34 -33 73 -46 73 -5 0 0 -12 11
-26z"/>
<path d="M1365 2983 c-38 -14 -91 -13 -180 2 -30 5 -29 5 5 -11 19 -9 55 -17
79 -18 33 -1 53 -10 83 -35 51 -43 63 -74 44 -112 -15 -31 -7 -39 14 -14 8 9
10 28 6 52 l-7 38 20 -25 c28 -35 44 -111 39 -177 -4 -48 -10 -61 -37 -85 -17
-15 -42 -28 -55 -28 -26 0 -51 24 -41 40 7 11 26 14 23 3 -2 -5 2 -9 7 -11 17
-5 17 25 0 31 -28 12 -46 -4 -43 -37 3 -29 5 -31 43 -30 22 0 48 4 58 8 39 18
13 -11 -41 -46 -71 -46 -123 -66 -186 -72 -69 -7 -144 29 -174 83 -45 79 -16
170 51 157 31 -6 37 9 7 19 -13 4 -31 0 -45 -9 -35 -23 -31 -3 6 28 35 30 58
32 99 11 25 -13 30 -13 30 -1 0 16 -27 29 -41 20 -5 -3 -9 0 -9 6 0 17 24 22
56 9 47 -19 106 -20 131 -4 25 17 30 54 11 73 -18 18 -75 15 -82 -4 -10 -27
-7 -34 19 -34 14 0 25 5 25 11 0 6 -7 8 -16 5 -10 -4 -14 -1 -12 6 7 20 34 21
52 3 12 -13 14 -21 5 -37 -11 -21 -14 -21 -150 -1 -25 3 -41 0 -52 -12 -11
-10 -17 -12 -17 -5 0 7 -16 0 -36 -15 -32 -25 -35 -25 -30 -7 7 20 -20 59 -32
47 -3 -3 0 -11 6 -17 16 -16 15 -48 -5 -123 -16 -59 -16 -65 1 -109 21 -54 63
-93 111 -102 19 -3 35 -9 35 -13 0 -3 -18 -16 -40 -29 -48 -27 -83 -72 -104
-135 -22 -65 -20 -96 9 -183 30 -88 30 -92 8 -116 -15 -16 -15 -18 0 -18 15 0
41 32 33 41 -2 2 -6 16 -10 31 -6 26 -5 27 20 18 14 -6 36 -10 48 -10 29 0 59
32 50 53 -8 21 -43 32 -56 19 -13 -13 -2 -46 12 -37 6 4 8 11 5 16 -4 5 -2 9
4 9 17 0 23 -20 11 -35 -14 -17 -63 -14 -86 6 -49 40 -58 148 -20 232 13 30
29 58 36 62 9 6 9 3 1 -13 -17 -32 -13 -67 9 -87 26 -24 39 -11 15 15 -31 34
-22 70 28 116 39 35 54 42 100 46 30 2 74 15 98 27 l44 23 -22 -24 c-59 -63
-18 -148 71 -148 36 0 48 5 65 26 25 32 26 52 5 82 -12 18 -24 22 -52 20 -34
-3 -37 -6 -37 -33 0 -23 5 -31 23 -33 15 -2 22 2 22 13 0 12 -6 15 -20 10 -23
-7 -27 7 -6 24 21 17 66 -6 66 -34 0 -58 -95 -75 -133 -23 -27 36 -18 61 45
128 40 43 49 50 45 31 -7 -27 7 -51 29 -51 12 0 11 5 -2 25 -16 24 -15 29 7
88 33 89 32 175 -4 244 -15 29 -38 60 -52 70 -71 50 -72 51 -50 58 11 4 34 13
50 20 40 18 11 17 -40 -2z"/>
<path d="M1545 2993 c-26 -6 -54 -42 -55 -69 0 -32 33 -56 72 -52 29 3 33 6
33 33 0 21 -5 31 -19 33 -28 6 -40 -12 -20 -29 16 -12 17 -12 11 5 -6 16 -5
17 8 6 15 -12 15 -15 0 -29 -14 -14 -18 -14 -42 -1 -39 22 -39 37 2 75 20 19
35 34 33 34 -2 -1 -12 -3 -23 -6z"/>
<path d="M1750 2985 c16 -19 38 -19 70 1 14 9 17 13 7 10 -53 -17 -70 -19 -63
-7 4 6 0 11 -10 11 -13 0 -14 -3 -4 -15z"/>
<path d="M1925 2975 c3 -16 3 -25 -1 -18 -3 8 -21 -5 -48 -33 -38 -39 -48 -44
-87 -44 -39 -1 -72 -9 -131 -34 -15 -7 -15 -4 2 29 14 28 17 43 9 63 -13 33
-37 51 -69 51 -23 0 -23 -1 7 -14 69 -30 66 -88 -7 -159 -22 -22 -38 -41 -35
-44 3 -3 18 6 33 21 38 37 132 67 207 67 53 0 68 -4 104 -31 100 -72 93 -221
-9 -205 -32 5 -34 4 -16 -9 25 -19 41 -19 59 0 12 11 16 12 20 2 6 -17 15 -7
23 28 12 51 9 98 -11 138 -20 42 -46 63 -102 82 l-37 13 30 15 c35 18 108 96
99 105 -3 4 -10 0 -16 -8 -8 -13 -10 -13 -19 0 -8 11 -9 8 -5 -15z"/>
<path d="M2149 2961 c21 -49 17 -69 -21 -95 -31 -22 -60 -20 -92 5 -30 23 -32
36 -11 65 10 15 22 20 39 17 30 -6 40 -27 20 -44 -12 -10 -13 -9 -8 6 5 12 3
16 -6 13 -21 -7 -24 -27 -5 -34 9 -4 23 0 33 9 22 23 2 67 -31 67 -83 0 -92
-107 -11 -129 41 -11 88 3 113 33 18 22 8 84 -19 110 l-21 21 20 -44z"/>
<path d="M2170 2989 c0 -11 65 -28 120 -30 48 -3 125 15 135 31 8 13 4 13 -38
-5 -44 -18 -129 -19 -179 -1 -21 8 -38 10 -38 5z"/>
<path d="M589 2979 c67 -27 67 -81 1 -154 -55 -61 -67 -101 -26 -85 33 12 66
2 66 -21 0 -21 -16 -26 -22 -7 -2 6 -10 8 -17 4 -16 -10 3 -35 25 -32 27 4 35
21 24 51 -10 25 -14 27 -50 22 -22 -3 -40 -1 -40 3 0 5 17 21 39 37 21 15 39
31 39 36 1 4 8 20 17 36 28 55 -6 122 -60 120 -18 0 -17 -1 4 -10z"/>
<path d="M46 2961 c-4 -6 -2 -11 3 -11 6 0 11 -8 12 -17 0 -10 3 -13 5 -6 8
18 -11 49 -20 34z"/>
<path d="M400 2950 c-20 -6 -22 -9 -9 -14 15 -7 69 8 69 19 0 7 -29 5 -60 -5z"/>
<path d="M1410 2951 l-25 -7 27 -7 c29 -8 58 0 58 14 0 10 -24 10 -60 0z"/>
<path d="M1180 2941 c0 -4 11 -18 25 -31 18 -17 28 -21 36 -13 7 7 0 17 -25
31 -20 12 -36 18 -36 13z"/>
<path d="M2200 2940 c0 -14 37 -50 52 -50 4 0 8 7 8 15 0 8 -5 15 -12 15 -6 0
-20 7 -30 17 -13 11 -18 12 -18 3z"/>
<path d="M2361 2934 c7 -8 26 -22 43 -30 l31 -15 -35 30 c-37 32 -61 42 -39
15z"/>
<path d="M2410 2946 c0 -2 7 -6 15 -10 8 -3 15 -1 15 4 0 6 -7 10 -15 10 -8 0
-15 -2 -15 -4z"/>
<path d="M192 2913 c15 -15 31 -23 35 -19 4 4 -3 16 -17 26 -37 29 -49 24 -18
-7z"/>
<path d="M697 2922 c-25 -28 -20 -34 13 -17 17 9 30 20 30 25 0 16 -26 11 -43
-8z"/>
<path d="M1710 2918 c-30 -32 -24 -42 10 -16 17 12 30 25 30 30 0 15 -19 8
-40 -14z"/>
<path d="M25 2911 c-3 -5 -1 -12 5 -16 5 -3 10 1 10 9 0 18 -6 21 -15 7z"/>
<path d="M116 2882 c-27 -31 -34 -34 -73 -29 -24 2 -43 1 -43 -4 0 -5 10 -10
23 -10 12 -1 29 -2 37 -3 23 -2 67 25 81 51 19 36 7 34 -25 -5z"/>
<path d="M890 2891 c0 -10 58 -23 71 -15 5 3 7 10 4 15 -8 11 -75 12 -75 0z"/>
<path d="M1910 2891 c0 -10 51 -22 63 -14 4 2 5 9 2 14 -8 12 -65 12 -65 0z"/>
<path d="M246 2862 c-12 -11 -5 -19 15 -18 29 1 47 -27 30 -48 -8 -9 -23 -16
-34 -16 -16 0 -18 -3 -9 -12 8 -8 18 -9 36 0 32 15 42 48 21 72 -17 19 -50 32
-59 22z"/>
<path d="M2422 2850 c0 -14 2 -19 5 -12 2 6 2 18 0 25 -3 6 -5 1 -5 -13z"/>
<path d="M2261 2851 c-17 -11 -7 -41 14 -41 8 0 15 4 15 10 0 5 -8 7 -17 3
-17 -5 -17 -5 -1 12 18 20 45 15 55 -11 7 -19 -17 -44 -45 -47 -12 -1 -22 -5
-22 -9 0 -4 -5 -8 -11 -8 -5 0 -8 4 -4 9 3 6 -11 15 -32 20 -48 14 -53 14 -53
0 0 -6 6 -9 14 -6 15 6 74 -27 93 -52 7 -9 13 -12 13 -8 0 4 9 3 20 -3 33 -18
23 -1 -12 20 l-33 20 28 0 c28 0 67 31 67 53 0 34 -57 58 -89 38z"/>
<path d="M218 2845 c-4 -4 -4 -13 -1 -21 6 -16 43 -19 43 -4 0 5 -6 7 -14 4
-8 -3 -16 2 -18 11 -1 9 -6 14 -10 10z"/>
<path d="M379 2815 c-17 -37 -11 -45 14 -20 9 8 13 24 10 35 -3 11 -6 20 -7
20 0 -1 -8 -16 -17 -35z"/>
<path d="M503 2826 c22 -17 22 -39 -4 -111 -30 -86 -28 -161 5 -230 28 -55 39
-66 50 -42 3 6 4 3 1 -8 -4 -16 4 -27 35 -45 42 -26 50 -40 25 -40 -26 0 -94
-39 -109 -63 -30 -45 -35 -101 -16 -179 16 -64 16 -76 4 -95 -16 -25 -4 -32
15 -9 7 9 9 29 5 55 -6 39 5 56 21 31 9 -15 41 -12 55 5 10 12 6 13 -23 8 -29
-4 -37 -1 -55 22 -54 68 4 186 104 214 67 19 199 -15 252 -65 15 -13 35 -24
44 -24 10 0 19 -8 19 -17 2 -28 4 -36 18 -68 22 -48 16 -133 -13 -198 -14 -31
-30 -57 -36 -57 -7 0 -8 6 0 19 15 29 12 67 -6 85 -26 27 -36 18 -13 -13 28
-38 20 -69 -29 -117 -33 -33 -35 -36 -12 -30 14 4 46 29 71 56 48 50 69 104
69 173 0 29 -25 126 -46 182 -3 7 2 20 12 29 19 19 14 29 -10 20 -9 -3 -16
-17 -16 -30 0 -33 -8 -29 -59 27 -50 56 -58 97 -25 130 27 27 92 29 110 4 22
-30 17 -64 -11 -77 -21 -10 -29 -9 -43 6 -16 17 -16 17 7 14 28 -4 41 19 16
28 -23 9 -49 -19 -41 -44 8 -25 32 -32 66 -20 49 18 56 74 13 108 -36 29 -108
23 -135 -10 -22 -27 -23 -78 -2 -108 l15 -22 -51 20 c-28 11 -64 20 -81 20
-90 0 -171 108 -122 162 22 24 12 31 -16 11 -19 -13 -22 -22 -18 -49 3 -19 2
-34 -4 -34 -5 0 -9 1 -9 3 0 1 -9 27 -20 57 -24 66 -26 128 -4 178 10 20 18
46 19 57 1 11 5 30 9 43 9 26 -8 52 -33 52 -14 -1 -14 -2 2 -14z"/>
<path d="M1524 2818 c16 -23 14 -51 -9 -103 -45 -102 -20 -229 61 -302 25 -24
52 -43 60 -43 28 0 13 -18 -21 -24 -52 -10 -100 -57 -115 -112 -12 -40 -11
-56 3 -110 21 -78 21 -93 0 -116 -15 -16 -15 -18 0 -18 32 0 37 33 18 115 -19
80 -18 104 12 162 21 40 95 76 153 75 62 0 144 -27 193 -62 54 -40 63 -33 16
11 -67 62 -81 111 -42 147 43 40 127 20 127 -30 0 -19 -32 -48 -52 -48 -26 0
-30 28 -5 32 28 4 29 22 1 26 -28 4 -44 -17 -33 -45 12 -32 71 -32 93 -1 22
32 20 55 -9 83 -28 29 -72 32 -116 10 -38 -20 -53 -58 -39 -98 5 -17 9 -32 7
-33 -1 -2 -21 3 -42 11 -22 8 -53 14 -68 15 -36 0 -63 14 -104 53 -37 35 -44
79 -16 109 13 15 14 18 2 18 -36 0 -50 -48 -28 -93 7 -16 4 -14 -14 7 -59 69
-64 238 -9 272 34 22 78 26 92 9 11 -13 11 -18 0 -28 -10 -9 -13 -9 -17 1 -6
16 -23 15 -23 -2 0 -14 37 -29 52 -20 4 3 8 18 8 34 0 24 -5 31 -27 36 -14 4
-39 2 -55 -4 -33 -12 -42 -3 -28 32 7 19 6 29 -6 41 -23 23 -37 18 -20 -7z
m326 -498 c0 -5 -2 -10 -4 -10 -3 0 -8 5 -11 10 -3 6 -1 10 4 10 6 0 11 -4 11
-10z"/>
<path d="M742 2791 c2 -21 6 -37 11 -34 11 7 8 73 -3 73 -6 0 -9 -17 -8 -39z"/>
<path d="M1760 2788 c0 -31 3 -39 10 -28 13 20 13 57 0 65 -6 4 -10 -11 -10
-37z"/>
<path d="M797 2813 c-11 -10 -8 -25 3 -18 6 3 10 1 10 -4 0 -6 -6 -11 -14 -11
-8 0 -17 -7 -20 -16 -4 -10 -2 -13 7 -8 26 15 47 38 47 51 0 14 -22 18 -33 6z"/>
<path d="M1813 2808 c-20 -31 -31 -58 -25 -58 17 0 65 48 58 58 -9 16 -23 15
-33 0z"/>
<path d="M2406 2801 c-11 -12 -17 -23 -15 -25 8 -8 41 23 37 34 -2 7 -11 3
-22 -9z"/>
<path d="M687 2803 c-12 -11 -8 -20 17 -36 22 -15 24 -15 19 3 -6 23 -27 42
-36 33z"/>
<path d="M1700 2797 c0 -8 9 -22 20 -32 22 -20 27 -7 10 26 -12 22 -30 25 -30
6z"/>
<path d="M2010 2800 c0 -5 5 -12 11 -16 6 -3 9 -22 7 -40 -2 -19 0 -34 4 -34
4 0 8 7 8 16 0 8 4 13 9 9 5 -3 12 -1 16 5 3 5 15 10 25 10 10 0 22 5 26 12 5
8 2 9 -9 5 -10 -4 -17 -2 -17 5 0 6 -8 4 -18 -5 -22 -20 -33 -22 -31 -4 3 24
-1 35 -16 41 -8 3 -15 1 -15 -4z"/>
<path d="M1 2784 c0 -11 3 -14 6 -6 3 7 2 16 -1 19 -3 4 -6 -2 -5 -13z"/>
<path d="M75 2786 c-16 -7 -38 -22 -48 -33 -17 -20 -17 -20 17 -9 19 6 30 13
24 17 -7 4 -6 9 3 15 8 4 14 3 17 -5 3 -8 8 -7 16 4 10 14 18 15 54 6 72 -20
110 -96 71 -145 -23 -29 -24 -36 -5 -36 19 0 40 64 32 101 -5 26 -4 28 14 17
10 -7 18 -16 17 -21 -1 -5 6 -14 16 -20 14 -10 20 -9 27 3 5 8 12 11 16 7 9
-9 34 12 34 29 0 10 -5 10 -26 -1 -22 -11 -32 -10 -74 9 -26 11 -46 24 -43 29
2 4 -4 7 -13 7 -10 0 -14 3 -11 7 10 9 -50 33 -82 33 -14 -1 -39 -7 -56 -14z
m245 -96 c0 -5 -4 -10 -9 -10 -6 0 -13 5 -16 10 -3 6 1 10 9 10 9 0 16 -4 16
-10z"/>
<path d="M2119 2792 c-13 -6 -8 -14 27 -40 33 -24 44 -29 44 -17 0 9 -13 22
-30 29 -23 9 -27 15 -18 24 13 13 3 15 -23 4z"/>
<path d="M128 2744 c24 -17 39 -14 27 5 -3 6 -16 11 -28 11 l-21 0 22 -16z"/>
<path d="M1242 2740 c7 -11 19 -18 25 -15 7 2 13 0 13 -5 0 -4 14 -11 30 -15
17 -4 30 -11 30 -16 0 -6 -9 -5 -21 1 -11 7 -23 9 -26 6 -3 -3 7 -11 22 -18
23 -10 29 -10 33 0 2 6 12 12 22 12 21 0 32 21 19 41 -7 11 -9 11 -9 -3 0 -12
-8 -18 -25 -18 -25 0 -98 30 -103 43 -2 4 -8 7 -13 7 -5 0 -4 -9 3 -20z"/>
<path d="M829 2735 c45 -14 66 -12 56 6 -4 5 -27 9 -53 8 l-47 0 44 -14z"/>
<path d="M1811 2746 c2 -2 15 -6 29 -8 14 -1 28 -7 31 -12 8 -10 29 1 29 15 0
5 -21 9 -47 9 -25 0 -44 -2 -42 -4z"/>
<path d="M2395 2717 c-4 -10 -5 -21 -1 -24 10 -10 18 4 13 24 -4 17 -4 17 -12
0z"/>
<path d="M34 2710 c-12 -5 -26 -15 -30 -22 -6 -10 -4 -10 9 1 11 9 28 11 48 7
27 -5 30 -4 19 9 -14 17 -16 17 -46 5z"/>
<path d="M705 2700 c-22 -25 -23 -110 0 -126 23 -17 18 -23 -22 -26 -31 -2
-39 -8 -48 -31 -8 -25 -6 -31 14 -46 26 -20 52 -21 75 -2 20 17 9 43 -18 39
-22 -3 -20 -24 3 -21 9 1 10 -2 3 -9 -6 -6 -22 -8 -36 -4 -19 5 -26 13 -26 31
0 32 38 42 97 27 66 -18 105 -15 146 13 42 29 51 55 10 28 -16 -10 -34 -23
-41 -30 -13 -13 -73 -8 -108 9 -27 13 -54 59 -54 92 0 14 9 35 20 46 11 11 20
22 20 25 0 11 -18 4 -35 -15z"/>
<path d="M795 2706 c11 -8 24 -12 29 -9 5 4 6 1 3 -4 -8 -12 17 -36 26 -26 11
10 8 25 -3 18 -5 -3 -7 0 -4 8 5 14 -21 27 -55 27 -11 0 -9 -4 4 -14z"/>
<path d="M1716 2689 c-12 -21 -16 -41 -12 -61 l6 -31 -26 27 c-15 14 -34 26
-43 25 -11 0 -9 -3 5 -9 12 -5 25 -14 30 -21 5 -9 2 -10 -12 -4 -35 15 -77 11
-80 -7 -1 -10 2 -18 7 -18 5 0 9 5 9 10 0 17 48 11 95 -12 52 -27 56 -35 16
-35 -38 0 -61 -19 -61 -49 0 -31 34 -54 68 -45 35 10 37 45 4 49 -20 3 -23 0
-17 -17 7 -24 -3 -27 -30 -7 -24 17 -14 43 21 52 14 4 50 1 79 -6 66 -16 115
-7 145 25 13 14 18 25 12 25 -6 0 -14 -4 -17 -10 -9 -15 -58 -12 -83 6 -20 14
-22 14 -22 0 0 -9 5 -17 10 -17 6 -1 15 -3 20 -4 6 -1 16 -3 23 -4 7 -1 5 -6
-5 -12 -24 -14 -95 6 -111 31 -6 11 -16 20 -22 20 -18 0 -4 83 18 108 15 16
17 22 6 22 -8 0 -23 -14 -33 -31z m24 -204 c0 -12 -19 -12 -23 0 -4 9 -1 12 9
8 7 -3 14 -7 14 -8z"/>
<path d="M1805 2708 c11 -6 28 -20 37 -32 14 -17 19 -19 30 -8 11 11 9 17 -11
33 -13 10 -35 19 -50 19 -24 -1 -25 -1 -6 -12z"/>
<path d="M2054 2705 c-12 -8 -24 -12 -27 -9 -8 8 -27 -56 -27 -93 0 -67 54
-136 118 -149 40 -8 40 -15 1 -38 -17 -10 -28 -20 -25 -23 3 -3 -4 -23 -14
-44 -25 -48 -25 -50 1 -78 28 -30 35 -20 13 18 -18 30 -18 32 1 67 24 45 84
84 129 84 18 0 50 7 71 16 43 17 51 14 36 -14 -19 -36 -13 -69 20 -96 30 -25
98 -38 84 -16 -4 6 -12 10 -18 9 -42 -5 -77 28 -77 71 0 23 12 44 45 79 54 57
58 73 10 37 -138 -105 -311 -92 -366 28 -24 54 -24 87 2 121 18 22 28 26 56
23 31 -4 33 -3 17 9 -22 16 -25 16 -50 -2z m306 -225 c0 -5 -5 -10 -11 -10 -5
0 -7 5 -4 10 3 6 8 10 11 10 2 0 4 -4 4 -10z"/>
<path d="M1261 2684 c-1 -17 -10 -43 -22 -58 -17 -22 -18 -26 -4 -26 23 0 50
67 36 94 -9 19 -10 18 -10 -10z"/>
<path d="M2274 2675 c0 -19 -9 -44 -19 -55 -10 -11 -13 -20 -7 -20 19 0 42 43
42 77 0 44 -15 42 -16 -2z"/>
<path d="M2322 2703 c-10 -4 -10 -8 -1 -19 16 -20 36 -17 42 6 3 11 1 20 -4
20 -5 0 -9 -7 -9 -16 0 -8 -5 -12 -10 -9 -6 4 -8 11 -5 16 7 10 6 10 -13 2z"/>
<path d="M773 2664 c10 -34 21 -42 32 -24 8 12 -10 46 -29 53 -11 5 -12 0 -3
-29z"/>
<path d="M1786 2675 c8 -39 21 -52 35 -38 7 7 3 19 -16 39 l-25 29 6 -30z"/>
<path d="M144 2676 c-4 -10 1 -25 11 -36 26 -28 37 -25 23 8 -17 40 -26 48
-34 28z"/>
<path d="M1156 2681 c-9 -14 4 -40 25 -52 22 -11 22 -11 8 30 -11 31 -23 39
-33 22z"/>
<path d="M2174 2675 c-6 -15 21 -55 37 -55 10 0 -10 58 -22 66 -5 3 -12 -2
-15 -11z"/>
<path d="M94 2647 c-8 -22 21 -47 56 -46 14 0 19 3 10 6 -8 3 -25 17 -37 31
-20 23 -23 24 -29 9z"/>
<path d="M2124 2645 c-9 -22 6 -35 47 -41 34 -5 34 -5 11 11 -12 9 -26 13 -32
10 -5 -3 -7 0 -4 8 3 8 1 18 -5 22 -6 3 -14 -1 -17 -10z"/>
<path d="M615 2640 c4 -6 9 -8 13 -6 4 2 16 -3 27 -11 15 -12 16 -14 3 -10 -9
3 -33 9 -52 13 -32 5 -36 4 -36 -15 0 -18 3 -20 19 -9 15 9 28 9 55 1 41 -13
49 2 18 30 -20 18 -57 23 -47 7z"/>
<path d="M1100 2637 c0 -16 42 -37 73 -36 21 0 21 1 -3 11 -14 6 -28 10 -32
10 -5 -1 -7 3 -5 10 1 6 -6 14 -15 16 -11 2 -18 -2 -18 -11z"/>
<path d="M2345 2626 c-17 -12 -18 -18 -7 -40 9 -21 19 -26 46 -26 19 0 37 4
40 9 3 4 -11 8 -32 7 -31 -1 -37 3 -40 22 -2 14 2 22 12 22 10 0 13 -6 9 -17
-5 -14 -3 -16 7 -6 13 12 7 43 -8 43 -4 0 -17 -6 -27 -14z"/>
<path d="M64 2588 c-8 -12 19 -20 62 -16 l38 3 -47 11 c-27 6 -50 7 -53 2z"/>
<path d="M1084 2588 c-10 -15 2 -19 47 -16 l44 3 -43 11 c-26 7 -45 8 -48 2z"/>
<path d="M1956 2572 c-5 -22 -4 -38 4 -47 15 -18 34 -20 24 -3 -4 7 -11 28
-14 48 l-6 35 -8 -33z"/>
<path d="M2094 2589 c-8 -13 19 -21 57 -17 l34 3 -43 11 c-24 6 -45 7 -48 3z"/>
<path d="M790 2580 c0 -14 38 -32 58 -27 12 3 9 6 -10 11 -16 5 -28 12 -28 17
0 5 -4 9 -10 9 -5 0 -10 -4 -10 -10z"/>
<path d="M2193 2573 c4 -6 -4 -18 -18 -27 -28 -18 -34 -49 -9 -44 21 4 47 65
32 74 -6 4 -8 3 -5 -3z"/>
<path d="M220 2557 c0 -21 26 -51 38 -43 17 10 14 19 -13 39 -19 14 -25 15
-25 4z"/>
<path d="M1157 2548 c-29 -21 -36 -48 -12 -48 13 0 51 57 43 65 -2 2 -15 -6
-31 -17z"/>
<path d="M1206 2554 c-9 -25 -7 -64 4 -64 6 0 10 18 10 40 0 43 -4 50 -14 24z"/>
<path d="M1240 2552 c0 -19 18 -42 32 -42 15 0 8 26 -12 43 -19 16 -20 16 -20
-1z"/>
<path d="M2255 2550 c10 -34 23 -46 35 -34 7 7 2 18 -16 35 l-26 24 7 -25z"/>
<path d="M145 2548 c-24 -14 -35 -29 -29 -40 10 -16 31 -7 43 18 14 32 12 36
-14 22z m-4 -31 c-10 -9 -11 -8 -5 6 3 10 9 15 12 12 3 -3 0 -11 -7 -18z"/>
<path d="M187 2536 c-5 -16 -4 -33 1 -38 14 -14 19 3 12 37 l-6 30 -7 -29z"/>
<path d="M2217 2536 c-5 -16 -4 -33 1 -38 14 -14 19 3 12 37 l-6 30 -7 -29z"/>
<path d="M376 2535 c-8 -8 -17 -15 -21 -15 -3 0 -18 -9 -33 -20 -35 -26 -118
-48 -169 -46 -50 3 -127 40 -141 69 -6 12 -11 17 -11 10 -2 -24 51 -72 85 -79
41 -8 43 -15 6 -36 -35 -21 -82 -67 -82 -81 0 -6 11 3 25 19 14 16 25 25 25
21 0 -5 18 7 40 26 33 28 51 35 94 39 29 2 72 14 94 26 47 24 51 22 22 -15
-48 -61 -3 -133 83 -133 55 0 97 64 69 107 -15 24 -58 33 -81 17 -26 -18 -27
-36 -3 -57 14 -13 21 -14 30 -5 18 18 15 28 -9 28 -24 0 -21 23 4 28 16 3 57
-30 57 -47 0 -5 -8 -19 -19 -32 -34 -42 -125 -21 -131 31 -5 36 3 52 45 100
25 28 45 53 45 55 0 9 -8 5 -24 -10z"/>
<path d="M1020 2434 c0 -9 11 -14 29 -14 32 0 54 19 24 21 -10 0 -26 2 -35 4
-10 2 -18 -3 -18 -11z"/>
<path d="M2042 2442 c-7 -2 -10 -8 -6 -13 7 -11 45 -11 63 0 9 6 5 10 -16 13
-17 2 -35 2 -41 0z"/>
<path d="M2399 2434 c-16 -19 -1 -47 27 -52 16 -3 17 -1 4 7 -8 6 -10 11 -5
11 6 0 3 5 -5 10 -13 9 -12 12 4 25 16 12 17 15 4 15 -8 0 -21 -7 -29 -16z"/>
<path d="M5 2430 c3 -5 19 -8 36 -6 47 5 47 16 0 16 -25 0 -40 -4 -36 -10z"/>
<path d="M238 2412 c-27 -17 -38 -42 -18 -42 13 0 50 37 50 50 0 12 2 12 -32
-8z"/>
<path d="M715 2420 c-3 -5 9 -19 27 -29 35 -22 48 -20 28 4 -20 24 -48 37 -55
25z"/>
<path d="M1252 2409 c-18 -10 -30 -24 -27 -29 7 -12 35 1 55 25 20 24 7 26
-28 4z"/>
<path d="M1732 2418 c3 -7 19 -21 38 -32 l32 -19 -11 21 c-17 31 -68 57 -59
30z"/>
<path d="M2265 2406 c-30 -24 -31 -42 -2 -30 17 6 52 54 40 54 -5 0 -21 -11
-38 -24z"/>
<path d="M2054 2362 c-32 -42 -54 -107 -54 -160 0 -59 27 -142 46 -142 8 0 14
5 14 10 0 6 -4 10 -9 10 -17 0 -36 65 -34 120 1 56 20 114 55 163 25 35 10 34
-18 -1z"/>
<path d="M510 2371 c0 -16 17 -21 50 -15 22 5 28 9 18 15 -18 12 -68 11 -68 0z"/>
<path d="M1526 2371 c-8 -13 16 -20 48 -14 20 4 24 8 14 14 -17 11 -55 11 -62
0z"/>
<path d="M2173 2326 c-24 -21 -26 -27 -16 -49 12 -27 62 -45 85 -31 10 6 10 4
0 -9 -8 -9 -33 -24 -58 -33 -30 -11 -44 -23 -44 -35 0 -25 22 -24 45 1 25 28
32 25 27 -13 -2 -22 3 -41 16 -57 28 -35 39 -18 12 18 -51 69 33 162 125 141
25 -6 26 -7 8 -9 -13 -1 -27 -3 -32 -4 -14 -2 -36 -25 -29 -31 2 -3 19 2 37
11 25 12 38 13 62 5 23 -8 30 -8 27 2 -7 22 -71 48 -108 43 -135 -19 -135 -19
-150 -1 -16 20 -3 48 25 53 20 4 42 -14 31 -25 -4 -4 -11 -1 -16 7 -8 13 -10
12 -10 -2 0 -12 8 -18 21 -18 28 0 22 40 -8 51 -17 6 -29 3 -50 -15z m3 -151
c-11 -8 -22 -12 -25 -9 -6 6 19 24 34 24 6 -1 1 -7 -9 -15z"/>
<path d="M38 2322 c-8 -30 -1 -50 23 -63 20 -10 28 4 9 16 -5 3 -13 20 -18 38
-8 30 -9 31 -14 9z"/>
<path d="M136 2321 c-34 -38 13 -91 68 -76 19 6 19 4 -4 -14 -14 -11 -36 -25
-50 -31 -14 -6 -31 -19 -38 -30 -10 -17 -10 -20 5 -20 9 0 27 10 40 22 l23 21
0 -35 c0 -35 32 -89 45 -77 3 4 -1 14 -11 23 -9 9 -17 34 -18 55 0 22 -4 37
-8 34 -5 -2 -8 1 -8 6 0 6 5 11 12 11 6 0 22 9 34 21 27 26 86 40 122 29 l27
-8 -31 -1 c-31 -1 -74 -25 -63 -35 3 -4 19 0 35 9 36 18 42 19 77 0 40 -21 30
3 -14 33 -29 20 -41 23 -84 17 -96 -13 -137 -11 -149 7 -15 24 13 53 43 43 12
-3 18 -11 15 -17 -4 -6 -10 -5 -15 3 -7 11 -9 10 -9 -4 0 -12 6 -17 18 -15 9
2 17 12 17 23 0 29 -55 33 -79 6z m19 -141 c-3 -5 -11 -10 -16 -10 -6 0 -7 5
-4 10 3 6 11 10 16 10 6 0 7 -4 4 -10z"/>
<path d="M1152 2328 c-17 -17 -15 -53 4 -68 8 -8 28 -13 44 -13 36 0 30 -11
-20 -37 -44 -22 -90 -26 -90 -8 0 9 -3 9 -11 1 -17 -17 0 -35 27 -29 18 5 22
3 18 -9 -4 -8 -1 -15 6 -15 20 0 50 20 50 34 0 8 7 16 15 19 11 5 12 1 4 -20
-5 -14 -7 -35 -3 -47 10 -34 34 -67 44 -61 6 3 0 19 -12 35 -42 58 -1 141 76
153 17 2 40 1 51 -4 18 -7 17 -8 -7 -8 -15 -1 -34 -8 -43 -17 -23 -23 -13 -27
21 -9 37 19 64 19 90 0 12 -8 24 -11 28 -8 3 3 6 1 6 -5 0 -5 3 -18 7 -28 6
-16 4 -16 -24 1 -17 10 -38 15 -47 12 -26 -10 -18 -24 12 -20 81 12 101 -109
30 -184 -37 -40 -78 -56 -137 -55 -69 2 -138 25 -191 63 -53 39 -62 32 -15
-12 40 -38 65 -78 65 -107 0 -53 -97 -83 -135 -42 -33 37 2 92 49 74 23 -9 20
-22 -6 -26 -29 -4 -25 -23 5 -23 16 0 23 7 25 24 5 32 -23 53 -57 44 -54 -13
-67 -68 -26 -108 28 -29 71 -32 115 -10 41 21 56 88 28 123 -13 16 -2 15 47
-3 22 -8 57 -14 78 -15 48 0 104 -41 124 -89 13 -31 13 -36 -7 -63 -22 -30
-17 -36 13 -14 20 15 23 66 5 84 -7 7 -8 12 -2 12 22 0 64 -107 64 -164 0 -94
-25 -135 -89 -143 -30 -4 -39 -2 -45 12 -7 18 0 35 14 35 5 0 7 -7 3 -16 -4
-12 -2 -15 8 -12 24 8 16 33 -11 33 -18 0 -26 -6 -28 -23 -7 -49 34 -65 89
-36 30 15 31 15 25 -5 -3 -12 -8 -29 -11 -38 -2 -10 -1 -23 3 -29 10 -15 42
-25 42 -14 0 6 -4 10 -10 10 -20 0 -21 48 -1 97 27 69 35 140 22 188 -14 54
-62 127 -79 120 -7 -2 -10 -1 -7 5 3 5 -11 20 -32 34 -33 23 -35 26 -15 26 57
0 115 53 133 122 11 40 11 55 -4 101 -20 63 -22 98 -5 115 6 6 9 15 5 18 -10
11 -37 -17 -37 -38 0 -19 -1 -19 -26 1 -36 29 -87 36 -149 21 -82 -20 -138 6
-99 45 20 20 36 19 32 -2 -4 -23 30 -30 38 -8 12 31 -57 50 -84 23z m13 -148
c-3 -5 -12 -10 -18 -10 -7 0 -6 4 3 10 19 12 23 12 15 0z"/>
<path d="M1 2304 c0 -11 3 -14 6 -6 3 7 2 16 -1 19 -3 4 -6 -2 -5 -13z"/>
<path d="M1941 2311 c-11 -7 -12 -17 -3 -51 9 -37 9 -41 -6 -34 -10 4 -33 9
-54 12 -29 3 -38 0 -47 -16 -20 -37 15 -76 45 -51 14 12 10 29 -7 29 -6 0 -7
-4 -4 -10 3 -5 2 -10 -4 -10 -19 0 -23 22 -8 38 24 23 76 4 104 -37 32 -47 31
-132 0 -203 -21 -48 -57 -93 -57 -72 0 4 -12 -4 -27 -18 -39 -35 -68 -49 -96
-44 -13 2 -49 -6 -80 -19 l-56 -22 19 34 c33 62 -11 127 -85 127 -70 0 -114
-83 -63 -118 43 -30 88 -15 88 30 0 27 -38 44 -51 23 -9 -15 -3 -29 12 -29 6
0 8 4 4 9 -3 5 -1 12 4 15 5 3 11 -3 14 -14 8 -29 -24 -43 -51 -24 -28 20 -28
59 0 78 28 20 51 20 88 1 56 -29 47 -86 -24 -154 -51 -49 -45 -56 14 -16 100
67 216 82 292 38 72 -42 101 -151 53 -199 -14 -14 -31 -24 -38 -21 -53 22 -53
22 -34 0 17 -20 21 -20 52 -8 18 8 36 11 40 7 3 -4 5 -2 4 3 -1 6 3 28 10 50
26 84 -42 195 -119 195 -30 0 -24 16 15 40 49 30 80 75 100 142 18 63 15 97
-17 195 -19 59 -20 64 -4 88 17 26 6 34 -23 16z"/>
<path d="M626 2293 c-8 -20 -1 -30 33 -48 l28 -14 -15 34 c-18 39 -38 51 -46
28z"/>
<path d="M694 2295 c-4 -9 -2 -26 3 -38 9 -21 10 -20 15 11 5 35 -8 54 -18 27z"/>
<path d="M1643 2294 c-4 -12 3 -24 22 -40 36 -28 41 -25 21 14 -20 39 -34 48
-43 26z"/>
<path d="M1710 2283 c0 -16 5 -35 10 -43 7 -11 10 -4 10 28 0 23 -4 42 -10 42
-5 0 -10 -12 -10 -27z"/>
<path d="M441 2281 c-10 -6 -12 -22 -9 -56 5 -40 3 -45 -11 -39 -36 15 -48 15
-60 0 -11 -13 -8 -14 22 -9 29 4 37 1 56 -23 18 -23 22 -37 17 -68 -10 -60
-32 -93 -82 -122 -38 -22 -58 -27 -105 -26 -67 2 -141 28 -193 67 -49 37 -45
22 9 -36 46 -49 55 -81 35 -119 -14 -26 -65 -42 -96 -30 -20 8 -25 7 -21 -2 2
-8 22 -13 50 -12 76 1 118 57 86 116 -15 28 -8 30 41 13 23 -8 60 -15 82 -15
33 0 46 -7 84 -46 41 -40 45 -49 40 -77 -3 -17 -12 -34 -18 -38 -7 -5 -9 -11
-6 -14 9 -9 26 2 37 23 6 11 4 31 -4 57 l-14 39 24 -29 c50 -64 65 -194 29
-251 -30 -44 -114 -63 -114 -25 0 11 4 23 10 26 5 3 10 -1 10 -9 0 -9 5 -16
11 -16 6 0 9 8 7 18 -5 27 -52 23 -56 -6 -7 -48 33 -62 103 -36 11 4 -1 -11
-28 -33 -52 -43 -152 -83 -207 -83 -57 0 -107 19 -140 51 -18 19 -30 25 -30
16 0 -8 8 -21 18 -30 23 -21 88 -48 96 -40 3 4 6 1 6 -5 0 -5 -15 -20 -34 -31
-19 -12 -40 -29 -47 -38 -12 -14 -12 -16 0 -9 10 7 12 3 6 -15 -3 -13 -9 -32
-12 -42 -3 -10 3 -27 13 -38 24 -26 39 -24 20 3 -20 29 -20 53 0 86 29 47 69
72 126 78 29 3 66 12 82 20 41 20 49 18 31 -10 -49 -74 43 -164 124 -122 67
35 48 126 -26 126 -33 0 -53 -44 -31 -67 10 -9 24 -13 33 -9 19 7 16 27 -5 34
-7 3 -10 0 -6 -7 4 -6 2 -11 -3 -11 -6 0 -11 9 -11 20 0 14 7 20 23 20 29 0
43 -10 51 -36 5 -17 0 -27 -20 -43 -37 -29 -70 -26 -104 8 -26 26 -28 32 -20
62 9 29 84 119 101 119 3 0 4 -11 2 -24 -4 -17 1 -27 16 -35 25 -14 27 -5 6
19 -14 16 -13 25 11 95 48 139 18 257 -82 328 -44 31 -44 32 -20 38 47 13 87
44 106 84 24 50 25 87 4 165 -16 55 -16 61 0 84 17 27 12 33 -13 17z m-316
-321 c3 -5 1 -10 -4 -10 -6 0 -11 5 -11 10 0 6 2 10 4 10 3 0 8 -4 11 -10z"/>
<path d="M740 2271 c-18 -35 -11 -45 15 -21 13 12 22 27 19 31 -9 15 -23 10
-34 -10z"/>
<path d="M1751 2260 c-5 -16 -8 -30 -6 -30 11 0 45 36 45 47 0 25 -28 13 -39
-17z"/>
<path d="M593 2232 c-24 -3 -30 -16 -14 -27 5 -3 12 -1 15 4 3 5 24 8 45 7 22
0 37 2 35 5 -5 9 -53 15 -81 11z"/>
<path d="M822 2228 c-6 -6 -12 -22 -12 -35 0 -18 6 -23 24 -23 29 0 43 17 27
33 -8 8 -11 6 -11 -6 0 -21 -16 -22 -24 -2 -11 29 37 39 87 20 12 -5 16 -3 12
6 -7 18 -87 23 -103 7z"/>
<path d="M1593 2225 c-24 -18 0 -27 36 -14 17 6 38 8 47 5 8 -3 13 -2 10 3 -9
14 -76 18 -93 6z"/>
<path d="M60 2194 c0 -18 28 -30 40 -18 5 5 -1 14 -16 21 -19 9 -24 8 -24 -3z"/>
<path d="M2092 2193 c2 -10 11 -19 21 -21 23 -5 21 10 -4 26 -18 12 -20 11
-17 -5z"/>
<path d="M624 2190 c-29 -11 -39 -29 -25 -43 8 -8 14 -8 23 1 10 10 10 15 -2
23 -13 9 -13 10 2 6 9 -3 24 1 35 8 14 11 15 14 3 14 -8 0 -25 -4 -36 -9z"/>
<path d="M720 2193 c0 -3 7 -15 17 -25 21 -24 19 -75 -5 -107 -24 -33 -83 -54
-114 -41 -22 8 -22 9 -2 9 24 1 62 27 52 36 -3 4 -18 -1 -32 -10 -14 -10 -26
-14 -26 -9 0 4 -5 3 -12 -4 -9 -9 -20 -7 -47 10 l-36 21 33 -34 c35 -37 25
-35 196 -27 37 2 51 -1 60 -14 17 -27 -15 -55 -46 -40 -18 8 -19 11 -5 11 24
1 22 21 -2 21 -30 0 -37 -21 -13 -41 37 -29 97 4 86 48 -7 25 -49 46 -76 37
-17 -5 -18 -4 -7 14 7 12 15 20 18 20 4 -1 19 4 34 10 37 16 74 15 80 0 2 -7
8 -10 12 -6 4 4 5 15 1 24 -5 12 -15 15 -42 12 -32 -4 -34 -3 -18 9 13 10 14
13 3 13 -19 0 -32 -10 -52 -40 l-18 -25 7 42 c5 32 2 49 -10 68 -15 23 -36 34
-36 18z"/>
<path d="M1632 2184 c-12 -8 -22 -19 -22 -25 0 -14 28 -11 37 4 4 8 17 19 28
25 20 11 20 11 0 12 -11 0 -31 -7 -43 -16z"/>
<path d="M1749 2171 c31 -43 27 -83 -11 -120 -29 -29 -43 -33 -98 -33 -34 0
-41 2 -37 10 3 4 -11 14 -30 23 -40 20 -39 5 1 -25 29 -22 96 -26 163 -11 64
14 107 -17 71 -53 -17 -17 -31 -15 -24 3 7 18 -21 32 -35 18 -5 -5 -7 -17 -3
-26 7 -20 64 -23 82 -5 36 36 -10 95 -64 82 l-29 -7 30 24 c17 13 32 26 35 29
3 3 14 7 25 8 19 4 35 19 35 35 0 16 -41 6 -52 -13 -17 -27 -32 -25 -25 2 8
27 -20 88 -40 88 -11 0 -10 -6 6 -29z m91 -60 c0 -5 -7 -12 -16 -15 -14 -5
-15 -4 -4 9 14 17 20 19 20 6z m-70 -141 c0 -5 -5 -10 -11 -10 -5 0 -7 5 -4
10 3 6 8 10 11 10 2 0 4 -4 4 -10z"/>
<path d="M2389 2183 c-12 -15 -12 -16 4 -10 10 4 25 7 33 7 9 0 12 5 9 10 -9
15 -31 12 -46 -7z"/>
<path d="M667 2162 c-19 -20 -23 -52 -7 -52 12 0 32 48 28 62 -2 5 -11 1 -21
-10z"/>
<path d="M1684 2165 c-10 -8 -14 -15 -9 -15 6 0 3 -5 -5 -10 -13 -9 -13 -11 0
-20 12 -7 18 -3 28 21 16 38 12 44 -14 24z"/>
<path d="M267 2138 c-8 -18 -13 -35 -11 -37 6 -7 44 32 44 45 0 28 -20 23 -33
-8z"/>
<path d="M1287 2163 c-2 -5 -7 -20 -11 -36 -6 -26 -5 -27 14 -15 22 14 33 35
24 49 -6 11 -21 12 -27 2z"/>
<path d="M2296 2138 c-7 -18 -12 -35 -10 -37 8 -9 44 33 44 51 0 29 -19 21
-34 -14z"/>
<path d="M1334 2119 c-10 -12 -28 -25 -39 -30 -15 -7 -11 -8 15 -4 41 6 69 30
54 45 -7 7 -17 4 -30 -11z"/>
<path d="M2332 2109 c-24 -22 -28 -29 -15 -29 20 0 45 14 44 24 -3 18 0 20 9
6 8 -13 10 -13 10 2 0 28 -14 28 -48 -3z"/>
<path d="M297 2105 c-18 -16 -23 -25 -13 -25 29 0 66 20 66 35 0 22 -21 18
-53 -10z"/>
<path d="M82 2107 c-12 -14 -7 -27 10 -27 5 0 6 5 3 10 -3 6 1 10 9 10 19 0
22 -39 4 -42 -7 0 -20 -2 -28 -3 -20 -2 -67 22 -73 37 -3 7 -6 8 -6 2 -3 -41
109 -68 133 -31 21 33 -27 74 -52 44z"/>
<path d="M1873 2113 c-18 -6 -16 -23 1 -23 8 0 16 -5 18 -12 3 -8 6 -9 11 -1
9 14 -15 42 -30 36z"/>
<path d="M2113 2104 c-3 -8 -1 -20 6 -27 8 -8 11 -8 11 1 0 7 5 12 10 12 16 0
12 -27 -5 -34 -8 -3 -22 -3 -30 0 -8 4 -26 3 -39 0 -20 -5 -24 -12 -24 -36 1
-19 -6 -36 -18 -45 -10 -8 -14 -15 -7 -15 26 0 43 14 43 37 l0 25 39 -33 c72
-63 82 -131 23 -161 -64 -31 -131 16 -97 68 17 27 55 30 63 6 2 -8 -3 -12 -13
-10 -23 4 -32 -20 -10 -28 23 -9 49 19 40 45 -9 30 -70 32 -92 3 -34 -44 6
-112 66 -112 34 0 76 20 93 44 11 16 10 74 -2 81 -5 3 -10 12 -10 20 0 11 6
11 31 -2 17 -8 58 -19 92 -23 55 -6 64 -11 99 -50 41 -46 47 -73 22 -108 -8
-12 -11 -22 -6 -22 21 0 32 30 31 80 -2 49 -5 54 -42 78 -38 26 -39 26 -15 33
34 9 68 28 68 38 0 5 -21 -1 -46 -13 -78 -37 -174 -23 -272 41 -28 19 -57 31
-62 28 -6 -3 -10 -2 -10 4 0 14 21 19 57 13 55 -8 88 44 44 68 -26 13 -31 13
-38 -6z"/>
<path d="M1530 2103 c0 -10 45 -23 60 -18 33 10 23 20 -20 20 -22 0 -40 -1
-40 -2z"/>
<path d="M315 2064 l-40 -13 50 2 c28 1 49 6 48 12 -2 14 -14 14 -58 -1z"/>
<path d="M1335 2064 l-40 -12 48 -1 c26 -1 47 3 47 8 0 17 -14 18 -55 5z"/>
<path d="M2350 2064 l-45 -12 47 -1 c26 -1 49 3 53 8 10 17 -9 18 -55 5z"/>
<path d="M1645 2051 c-25 -13 -27 -16 -11 -19 10 -2 25 3 34 12 22 22 12 25
-23 7z"/>
<path d="M2290 2056 c0 -2 7 -20 15 -40 14 -33 37 -47 49 -28 8 14 -11 35 -24
27 -8 -5 -11 -4 -7 2 3 5 -3 17 -14 26 -10 9 -19 15 -19 13z"/>
<path d="M190 2030 c-17 -13 -22 -22 -15 -29 13 -13 31 -2 39 27 9 27 8 27
-24 2z"/>
<path d="M272 2023 c20 -46 29 -55 44 -42 17 14 12 22 -26 49 l-30 22 12 -29z
m32 -19 c3 -8 2 -12 -4 -9 -6 3 -10 10 -10 16 0 14 7 11 14 -7z"/>
<path d="M1208 2031 c-19 -19 -24 -41 -9 -41 10 0 26 19 34 43 8 22 -3 21 -25
-2z"/>
<path d="M2222 2029 c-21 -19 -22 -39 -1 -39 10 0 33 50 26 56 -2 2 -13 -5
-25 -17z"/>
<path d="M11 2024 c0 -11 3 -14 6 -6 3 7 2 16 -1 19 -3 4 -6 -2 -5 -13z"/>
<path d="M238 2010 c-6 -40 -3 -49 13 -33 8 8 8 20 2 40 l-10 28 -5 -35z"/>
<path d="M1250 2006 c0 -20 5 -36 10 -36 6 0 10 13 10 29 0 17 -4 33 -10 36
-6 4 -10 -8 -10 -29z"/>
<path d="M1296 2010 c16 -31 44 -41 44 -16 0 14 -36 46 -51 46 -4 0 -1 -13 7
-30z"/>
<path d="M2268 2012 c-2 -18 -1 -35 4 -38 14 -9 21 25 11 49 -9 21 -10 20 -15
-11z"/>
<path d="M1880 2026 c0 -4 9 -20 21 -35 18 -24 19 -32 9 -51 -6 -12 -9 -24 -7
-27 10 -9 28 38 25 64 -3 22 -48 68 -48 49z"/>
<path d="M6 1984 c-9 -24 -7 -28 9 -14 17 14 20 30 6 30 -5 0 -12 -7 -15 -16z"/>
<path d="M508 1951 c-34 -27 -43 -54 -27 -83 16 -30 28 -38 61 -38 45 0 62 59
21 74 -8 3 -19 4 -24 0 -12 -7 -11 -34 1 -34 6 0 10 5 10 11 0 5 5 7 10 4 21
-13 10 -35 -18 -35 -54 0 -68 41 -27 80 19 18 31 21 56 16 95 -19 91 -88 -10
-184 -38 -35 -17 -38 27 -3 141 114 334 84 372 -57 9 -35 8 -48 -6 -77 -18
-39 -55 -55 -79 -35 -10 8 -15 9 -15 2 0 -22 33 -31 62 -16 27 14 35 10 20
-12 -11 -16 -48 -34 -71 -34 -13 0 -21 -6 -21 -16 0 -13 -8 -15 -42 -10 -24 3
-51 7 -60 8 -9 1 -16 5 -15 8 1 3 -7 20 -17 39 -19 36 -15 74 10 103 10 10 12
18 5 22 -17 11 -43 -41 -43 -84 1 -23 -3 -38 -9 -35 -5 4 -9 11 -9 17 0 14
-31 37 -49 38 -7 0 -11 -6 -7 -15 4 -10 -1 -14 -17 -12 -16 1 -23 -4 -25 -22
-4 -22 -2 -23 12 -8 20 19 58 14 106 -16 l35 -22 -30 -3 c-59 -7 -83 -53 -46
-86 23 -21 60 -18 75 6 13 22 -3 41 -27 32 -22 -8 -10 -27 12 -20 12 5 12 3
-3 -9 -14 -10 -24 -11 -37 -4 -20 10 -26 44 -10 53 15 10 74 9 121 -1 50 -11
88 -2 133 30 28 19 29 19 26 1 -4 -21 7 -44 22 -44 5 0 4 9 -3 20 -10 15 -9
33 6 93 21 82 17 123 -14 175 -22 35 -85 69 -143 77 -36 6 -119 -11 -159 -31
l-27 -14 20 35 c37 62 5 119 -74 132 -23 3 -40 -1 -59 -16z m147 -361 c3 -5
-1 -10 -9 -10 -9 0 -16 5 -16 10 0 6 4 10 9 10 6 0 13 -4 16 -10z"/>
<path d="M18 1933 c-28 -7 -21 -21 7 -15 28 5 45 -22 26 -41 -9 -9 -12 -9 -9
0 2 6 -1 12 -7 13 -5 0 -11 -6 -13 -14 -4 -21 31 -21 48 -1 23 27 -13 67 -52
58z"/>
<path d="M413 1922 c-18 -2 -33 -7 -33 -13 0 -12 67 -12 75 0 8 13 -5 17 -42
13z"/>
<path d="M1428 1923 c-40 -6 -34 -23 7 -23 24 0 35 5 35 15 0 8 -3 14 -7 14
-5 -1 -20 -4 -35 -6z"/>
<path d="M1180 1912 c0 -4 7 -18 16 -30 16 -23 57 -31 49 -9 -6 14 -65 50 -65
39z"/>
<path d="M2410 1910 c0 -5 7 -10 15 -10 8 0 15 5 15 10 0 6 -7 10 -15 10 -8 0
-15 -4 -15 -10z"/>
<path d="M170 1902 c0 -12 34 -42 48 -42 22 0 12 19 -18 35 -16 9 -30 12 -30
7z"/>
<path d="M708 1899 c-10 -5 -23 -19 -29 -31 l-11 -21 32 19 c19 11 35 25 38
32 4 14 -7 15 -30 1z"/>
<path d="M1712 1890 c-32 -30 -27 -42 9 -22 31 17 40 33 22 39 -5 2 -19 -6
-31 -17z"/>
<path d="M2200 1902 c0 -12 34 -42 48 -42 22 0 12 19 -18 35 -16 9 -30 12 -30
7z"/>
<path d="M892 1861 c-10 -6 -8 -10 10 -14 34 -10 68 -8 68 2 0 19 -54 28 -78
12z"/>
<path d="M1912 1862 c-8 -6 -1 -12 23 -19 24 -8 37 -8 41 -1 13 21 -38 36 -64
20z"/>
<path d="M226 1817 c-11 -8 -15 -19 -10 -30 7 -21 35 -19 42 2 3 10 0 12 -12
8 -9 -4 -16 -2 -16 2 0 5 7 11 15 15 39 15 71 -35 38 -59 -23 -18 -26 -18 -91
-1 -74 20 -135 6 -161 -37 -11 -18 -11 -20 0 -9 19 17 85 15 104 -4 20 -20 33
-11 15 11 -7 8 -29 15 -49 15 -27 0 -32 3 -21 10 22 14 77 12 109 -5 16 -8 32
-11 36 -7 5 4 5 2 1 -5 -4 -7 0 -23 9 -37 18 -27 12 -70 -13 -99 -8 -9 -12
-20 -8 -24 4 -4 16 3 27 17 19 25 21 54 5 123 -6 24 -4 27 18 27 22 0 56 31
56 52 0 15 -40 48 -58 48 -10 0 -26 -6 -36 -13z"/>
<path d="M1245 1816 c-21 -15 -15 -46 9 -46 21 0 30 19 16 35 -18 21 3 19 30
-3 l23 -19 -21 -21 c-25 -25 -41 -27 -101 -8 -55 16 -114 6 -147 -24 l-24 -23
0 25 c0 14 -7 29 -16 32 -24 9 -29 7 -16 -6 16 -16 15 -59 -4 -125 -14 -47
-14 -62 -3 -101 15 -54 54 -94 108 -112 l40 -13 -37 -27 c-118 -86 -146 -191
-90 -347 22 -60 22 -62 4 -82 -24 -26 -17 -35 11 -16 15 10 19 22 16 36 -8 30
6 22 54 -31 46 -50 60 -88 44 -118 -13 -25 -64 -46 -94 -38 -31 7 -55 51 -41
74 13 20 52 28 67 13 8 -8 5 -11 -12 -11 -16 0 -22 -5 -19 -17 2 -10 9 -18 17
-18 8 0 19 8 25 18 27 43 -45 76 -83 38 -29 -29 -26 -57 9 -92 23 -23 36 -29
58 -26 83 13 122 80 79 135 -16 21 -2 23 38 6 21 -8 56 -16 79 -17 48 -3 99
-30 117 -64 7 -13 17 -22 23 -20 32 11 71 -97 64 -179 -6 -66 -31 -105 -78
-117 -36 -9 -69 10 -55 33 6 9 9 9 15 0 8 -13 30 -6 30 10 0 11 -27 20 -44 14
-20 -8 -26 -40 -11 -60 9 -13 21 -16 56 -11 24 3 45 11 47 16 2 6 7 11 12 11
4 0 1 -18 -6 -41 -15 -43 -7 -69 22 -69 12 0 11 5 -2 25 -16 24 -15 29 5 85
33 89 37 151 16 207 -23 61 -54 105 -67 97 -6 -4 -8 -2 -4 4 6 10 -32 43 -64
55 -9 3 -2 8 19 13 19 4 53 25 76 48 53 50 65 103 41 181 -19 60 -20 97 -4
113 9 9 8 12 -5 12 -9 0 -19 -11 -23 -25 -7 -29 -16 -31 -34 -10 -24 29 -86
38 -146 20 -57 -17 -84 -14 -104 10 -9 11 -7 18 9 34 27 27 45 28 32 2 -8 -15
-7 -20 6 -25 24 -9 40 10 27 32 -27 43 -98 15 -92 -37 3 -25 9 -29 77 -48 9
-2 -3 -12 -27 -24 -23 -12 -39 -25 -36 -31 3 -5 -3 -12 -15 -15 -12 -3 -21 -9
-21 -14 0 -18 23 -8 50 21 35 38 42 38 29 1 -8 -23 -7 -36 5 -60 9 -16 20 -33
26 -36 16 -10 12 15 -5 31 -25 25 -19 80 13 115 23 26 38 33 80 37 36 3 52 1
52 -7 0 -7 -4 -10 -9 -7 -16 10 -61 -13 -61 -30 0 -16 1 -16 18 -1 23 21 75
25 96 8 8 -7 19 -10 24 -7 6 3 12 -4 16 -17 9 -35 7 -42 -7 -23 -15 21 -68 19
-75 -2 -3 -11 0 -12 14 -4 50 26 100 -40 82 -107 -31 -115 -162 -161 -296
-105 -19 7 -39 11 -46 7 -6 -3 -8 -3 -4 2 9 9 -59 65 -78 65 -8 0 -14 5 -14
10 0 13 13 13 45 -2 38 -17 77 3 73 39 -3 29 -32 43 -50 25 -16 -16 1 -36 18
-21 18 15 27 7 18 -15 -7 -18 -40 -21 -77 -7 -57 22 -74 155 -32 246 l19 40 4
-35 c2 -19 10 -41 19 -47 26 -20 36 -15 19 9 -47 67 18 152 125 164 30 3 70
14 90 24 l36 19 -19 -38 c-25 -52 -11 -92 42 -116 46 -21 84 -12 114 28 27 37
13 78 -31 91 -52 14 -87 -32 -48 -64 16 -14 35 -6 35 16 0 17 -12 18 -29 2
-10 -11 -12 -9 -9 7 4 25 50 32 67 11 17 -21 6 -63 -20 -77 -31 -16 -86 -2
-105 26 -23 35 -10 75 41 125 25 24 45 48 45 52 0 5 -23 -7 -51 -27 -141 -96
-301 -82 -355 32 -19 40 -21 98 -3 119 20 25 59 36 75 23 8 -7 14 -7 14 -1 0
23 -26 31 -53 17 -25 -13 -27 -13 -25 3 7 39 96 56 130 25 17 -15 18 -15 18 1
0 18 -36 36 -60 29 -13 -4 -13 -4 0 6 50 36 138 -14 147 -84 4 -32 0 -45 -17
-63 -29 -30 -16 -43 13 -14 16 17 22 34 21 67 l-1 44 28 -30 c27 -29 49 -38
49 -20 0 5 -6 12 -12 15 -7 3 -1 3 14 0 20 -4 29 -1 37 14 13 25 3 36 -15 17
-8 -8 -21 -12 -28 -9 -8 3 -17 1 -21 -5 -3 -6 -12 -11 -18 -11 -7 0 -6 4 3 10
12 7 11 10 -5 16 -11 4 -31 16 -44 26 l-24 18 27 0 c40 0 66 17 66 45 0 46
-47 69 -85 41z m15 -22 c0 -8 -5 -12 -10 -9 -6 4 -8 11 -5 16 9 14 15 11 15
-7z m-180 -448 c0 -2 -8 -10 -17 -17 -16 -13 -17 -12 -4 4 13 16 21 21 21 13z"/>
<path d="M2255 1814 c-14 -15 -15 -19 -2 -32 8 -8 20 -11 26 -8 18 11 13 26
-6 19 -14 -5 -15 -3 -7 6 18 19 59 9 62 -15 5 -32 -39 -47 -91 -33 -79 21
-166 3 -181 -38 -6 -15 10 -18 19 -3 9 15 68 12 93 -6 19 -13 22 -13 22 -1 0
18 -54 39 -77 30 -11 -4 -14 -3 -9 5 11 18 93 14 122 -4 28 -19 54 -63 54 -92
0 -11 -10 -31 -21 -46 -27 -34 -18 -45 10 -15 15 16 21 36 21 68 1 46 1 46 15
20 16 -29 41 -43 58 -32 7 4 2 9 -13 13 -16 4 -24 12 -22 23 2 9 -4 17 -11 17
-8 0 -25 9 -38 20 l-24 19 31 1 c56 0 84 55 42 84 -29 20 -52 20 -73 0z"/>
<path d="M1510 1800 c0 -4 7 -13 16 -21 9 -7 13 -21 10 -33 -5 -20 -4 -20 8
-3 18 23 10 54 -15 60 -10 3 -19 2 -19 -3z"/>
<path d="M503 1789 c22 -13 22 -36 -4 -112 -29 -81 -28 -163 1 -220 28 -54 50
-78 63 -70 6 3 7 1 3 -5 -4 -7 7 -20 29 -33 37 -22 34 -38 -8 -39 -10 0 -37
-19 -61 -43 -51 -51 -63 -102 -40 -176 17 -57 18 -103 2 -120 -11 -10 -9 -12
7 -9 15 3 20 11 20 36 0 38 1 38 23 12 10 -11 33 -26 52 -34 30 -11 45 -11
100 0 72 16 105 12 114 -12 12 -32 -30 -61 -54 -36 -13 14 -12 15 3 9 19 -7
24 8 6 19 -6 3 -18 0 -26 -8 -13 -13 -12 -17 2 -32 22 -22 47 -20 73 4 33 31
9 80 -39 80 -41 0 -36 13 15 38 52 27 64 27 89 5 18 -17 19 -17 16 7 -4 22 -9
25 -39 24 -19 -1 -29 0 -22 3 6 3 12 9 12 14 0 18 -22 8 -51 -23 l-30 -33 6
36 c7 38 -15 99 -35 99 -15 0 -12 -16 5 -30 9 -7 15 -29 15 -54 0 -61 -41 -99
-110 -102 -28 -2 -50 1 -50 5 0 5 12 9 26 9 27 -1 63 27 51 38 -4 4 -15 0 -25
-9 -24 -22 -66 -22 -103 0 -29 17 -46 43 -29 43 6 0 10 -4 10 -8 0 -16 67 -13
74 3 6 17 -9 21 -19 5 -9 -15 -46 -2 -67 23 -24 27 -23 71 3 123 41 85 147
116 259 75 33 -12 65 -19 72 -15 6 4 8 3 5 -3 -7 -11 53 -63 72 -63 6 0 11 -5
11 -11 0 -7 -7 -8 -17 -4 -66 26 -108 11 -101 -37 4 -28 45 -38 54 -13 8 21
-4 34 -15 16 -11 -17 -32 -5 -24 14 9 24 68 18 100 -9 25 -21 28 -32 31 -99 3
-59 0 -84 -16 -121 -12 -25 -25 -45 -29 -44 -4 2 -26 -17 -49 -41 -38 -41 -46
-45 -109 -52 -37 -5 -79 -16 -93 -25 -24 -16 -25 -16 -17 7 20 66 18 85 -15
112 -60 51 -153 26 -153 -41 0 -42 19 -62 59 -62 24 0 37 6 45 22 10 18 8 24
-11 40 -24 19 -40 16 -40 -8 0 -8 9 -14 20 -14 11 0 20 -4 20 -9 0 -31 -65
-22 -75 10 -4 12 0 30 9 44 22 34 86 35 116 3 32 -34 21 -81 -30 -133 -48 -49
-52 -67 -7 -33 125 96 295 94 355 -4 55 -90 19 -186 -60 -163 -22 7 -22 6 -5
-11 17 -18 19 -18 48 -1 l31 17 -8 -33 c-10 -44 -8 -69 8 -78 18 -11 20 -5 8
23 -9 19 -8 38 4 85 21 81 20 118 -5 163 -21 38 -61 67 -107 79 l-27 7 42 28
c46 31 83 81 103 140 15 45 8 141 -14 189 -24 54 -27 72 -11 93 20 27 18 37
-5 24 -12 -6 -20 -21 -20 -35 0 -14 -2 -25 -5 -25 -8 0 -78 80 -92 104 -18 31
-16 41 13 75 43 52 124 33 124 -28 0 -29 -15 -41 -50 -41 -18 0 -34 23 -23 34
10 10 25 7 18 -4 -3 -5 -2 -10 3 -10 17 0 22 30 7 36 -33 13 -59 -38 -33 -64
31 -31 98 1 98 47 0 61 -70 97 -128 67 -53 -27 -67 -80 -35 -125 19 -27 18
-27 -62 3 -22 8 -55 15 -74 16 -26 0 -43 10 -77 44 -47 47 -55 76 -28 114 19
27 4 29 -21 2 -15 -17 -17 -26 -8 -55 14 -44 -1 -36 -26 13 -42 82 -39 179 7
234 17 20 21 30 11 26 -14 -6 -15 -1 -8 33 11 47 6 59 -24 59 -20 -1 -20 -2
-4 -11z"/>
<path d="M743 1749 c0 -26 3 -36 8 -27 11 17 11 68 0 68 -4 0 -8 -18 -8 -41z"/>
<path d="M790 1758 c-10 -18 -18 -34 -15 -36 9 -9 55 32 55 49 0 29 -18 23
-40 -13z"/>
<path d="M1758 1785 c-2 -3 -3 -19 0 -36 3 -22 7 -27 13 -18 18 28 7 74 -13
54z"/>
<path d="M1806 1761 c-22 -41 -20 -44 15 -26 18 10 29 23 27 32 -5 28 -26 25
-42 -6z m24 -6 c-7 -9 -15 -13 -17 -11 -7 7 7 26 19 26 6 0 6 -6 -2 -15z"/>
<path d="M680 1762 c0 -5 11 -19 25 -32 28 -26 30 -24 15 14 -9 24 -40 37 -40
18z"/>
<path d="M1695 1761 c-3 -5 5 -17 17 -25 24 -17 35 -8 24 19 -6 17 -32 20 -41
6z"/>
<path d="M2010 1761 c0 -6 4 -11 9 -11 5 0 12 -12 14 -27 4 -22 4 -20 3 6 0
19 -7 36 -13 39 -7 2 -13 -1 -13 -7z"/>
<path d="M2 1740 c0 -14 2 -19 5 -12 2 6 2 18 0 25 -3 6 -5 1 -5 -13z"/>
<path d="M570 1720 c-11 -7 -7 -10 18 -10 20 0 35 -6 39 -15 8 -21 -6 -33 -17
-15 -7 11 -12 12 -21 3 -6 -6 -8 -16 -5 -22 9 -15 39 -14 54 1 36 36 -23 87
-68 58z"/>
<path d="M1573 1720 c-35 -14 -28 -19 18 -13 29 4 44 2 50 -8 13 -20 11 -29
-6 -29 -8 0 -15 5 -15 12 0 9 -3 9 -12 0 -16 -16 3 -35 28 -30 26 5 31 48 8
65 -20 15 -39 16 -71 3z"/>
<path d="M795 1711 c-15 -6 -5 -9 35 -13 59 -6 73 -2 50 12 -18 11 -57 12 -85
1z"/>
<path d="M1516 1686 c-53 -127 -16 -264 90 -331 l45 -29 -51 -19 c-94 -35
-123 -114 -90 -250 11 -46 12 -62 2 -77 -7 -11 -8 -20 -2 -20 22 0 34 69 17
97 -5 8 1 8 21 1 31 -12 62 -6 62 12 0 7 -6 7 -21 0 -16 -9 -26 -8 -45 5 -35
23 -46 59 -34 106 38 140 214 170 369 64 28 -19 55 -35 60 -35 5 0 12 -6 14
-12 3 -7 3 1 0 18 -3 21 0 36 12 48 22 22 13 31 -15 16 -16 -9 -20 -18 -16
-36 8 -31 4 -30 -33 6 -78 78 -88 114 -46 155 28 29 70 32 103 9 40 -28 23
-84 -25 -84 -24 0 -42 25 -28 38 4 4 10 1 12 -5 7 -21 23 -15 23 8 0 30 -44
22 -48 -9 -8 -51 48 -70 86 -29 30 32 27 61 -9 91 -35 30 -58 32 -104 10 -46
-22 -61 -61 -41 -109 15 -35 15 -37 -2 -30 -57 25 -91 34 -123 35 -44 0 -105
50 -118 97 -8 26 -6 37 11 58 23 30 7 34 -22 5 -16 -16 -18 -25 -10 -45 12
-32 12 -35 1 -35 -19 0 -51 110 -51 173 0 50 4 68 20 85 15 16 18 27 11 39 -8
14 -12 11 -25 -21z"/>
<path d="M1812 1711 c-9 -5 3 -10 34 -15 50 -6 60 -4 49 13 -7 13 -64 14 -83
2z"/>
<path d="M260 1691 c0 -12 47 -61 60 -61 18 0 11 17 -10 23 -11 3 -20 12 -20
20 0 8 -7 17 -15 21 -8 3 -15 2 -15 -3z"/>
<path d="M361 1687 c-7 -10 -21 -17 -30 -18 -11 0 -9 -4 7 -11 27 -13 46 0 40
27 -3 17 -4 17 -17 2z"/>
<path d="M2393 1686 c-8 -14 -17 -17 -34 -13 -23 6 -23 5 -5 -8 25 -19 45 -19
52 0 10 24 -1 42 -13 21z"/>
<path d="M27 1674 c-15 -8 -27 -20 -27 -27 0 -8 2 -9 8 -1 11 17 49 26 57 14
7 -12 25 -14 25 -2 0 4 -8 12 -18 18 -14 9 -24 8 -45 -2z"/>
<path d="M1715 1650 c-15 -33 -16 -45 -7 -66 16 -34 15 -36 -7 -22 -11 7 -18
15 -15 19 5 8 -35 39 -49 39 -5 0 -6 -7 -3 -16 4 -11 1 -14 -13 -9 -24 7 -49
-21 -33 -37 9 -9 12 -8 12 5 0 11 8 17 25 17 14 0 25 5 25 10 0 6 5 10 11 10
6 0 9 -6 6 -14 -3 -8 8 -21 29 -32 41 -22 43 -34 6 -34 -36 0 -52 -16 -52 -52
0 -37 38 -57 75 -40 29 13 33 37 8 46 -24 9 -39 -9 -23 -29 18 -21 -3 -19 -31
4 l-24 20 22 22 c22 22 25 22 75 9 69 -17 92 -20 107 -10 7 4 -8 9 -35 13 -84
9 -126 80 -89 151 17 33 18 36 7 36 -5 0 -17 -18 -27 -40z m15 -200 c0 -5 -2
-10 -4 -10 -3 0 -8 5 -11 10 -3 6 -1 10 4 10 6 0 11 -4 11 -10z"/>
<path d="M1800 1684 c0 -10 55 -53 68 -54 15 0 16 26 2 35 -16 10 -70 24 -70
19z"/>
<path d="M2032 1681 c-16 -11 -35 -100 -29 -136 9 -53 44 -95 101 -120 l50
-22 -41 -26 c-69 -44 -113 -124 -113 -208 0 -68 15 -62 17 7 1 39 11 74 29
111 35 69 45 75 26 17 -14 -43 -14 -47 6 -67 27 -27 39 -16 17 16 -21 33 -12
66 30 107 26 25 48 35 106 46 40 7 77 18 83 24 5 5 16 10 22 10 10 0 9 -7 -2
-27 -7 -16 -14 -38 -14 -51 0 -43 87 -99 113 -73 8 8 3 11 -15 11 -41 0 -78
36 -78 75 0 27 10 44 45 81 55 56 59 76 7 34 -45 -36 -137 -70 -188 -70 -125
0 -222 107 -184 201 16 37 52 54 82 38 16 -9 19 -8 16 2 -5 15 -71 30 -86 20z"/>
<path d="M806 1666 c14 -11 21 -11 27 -3 5 7 6 2 2 -10 -5 -17 -2 -23 9 -23 9
0 16 6 16 13 0 21 -22 37 -49 37 -24 0 -24 -1 -5 -14z"/>
<path d="M771 1630 c11 -30 39 -42 39 -17 0 14 -31 47 -43 47 -3 0 -1 -13 4
-30z"/>
<path d="M1788 1635 c5 -30 20 -41 35 -26 7 7 5 16 -8 31 -24 27 -33 25 -27
-5z"/>
<path d="M142 1629 c2 -12 13 -28 25 -36 21 -14 21 -14 11 21 -12 39 -42 51
-36 15z"/>
<path d="M1155 1641 c-3 -5 6 -22 20 -38 l25 -28 -6 30 c-10 46 -24 59 -39 36z"/>
<path d="M2170 1631 c0 -10 11 -26 25 -35 29 -19 29 -19 14 23 -12 34 -39 43
-39 12z"/>
<path d="M87 1613 c-13 -12 -7 -25 8 -19 8 3 14 0 12 -7 -1 -7 10 -13 26 -15
l27 -3 -25 25 c-27 27 -37 31 -48 19z"/>
<path d="M1100 1607 c0 -21 22 -37 53 -37 l29 0 -30 25 c-33 28 -52 32 -52 12z"/>
<path d="M2120 1605 c0 -16 30 -35 54 -35 11 0 8 7 -10 25 -28 28 -44 32 -44
10z"/>
<path d="M2340 1585 c-16 -20 -3 -54 24 -61 21 -5 76 10 76 21 0 3 -18 2 -40
-1 -32 -5 -41 -3 -46 10 -4 9 -3 20 1 24 4 4 10 1 12 -5 7 -20 23 -15 23 7 0
24 -31 27 -50 5z"/>
<path d="M1938 1551 c-31 -25 -84 -27 -110 -4 -22 19 -36 10 -18 -12 7 -8 28
-15 47 -15 20 0 32 -4 28 -10 -13 -20 20 -9 46 16 l27 26 -1 -33 c-2 -26 2
-34 18 -37 15 -3 17 -2 8 9 -6 8 -13 29 -15 48 l-3 33 -27 -21z"/>
<path d="M62 1549 c6 -17 71 -24 95 -10 16 9 15 10 -8 11 -15 0 -41 3 -59 7
-25 5 -32 3 -28 -8z"/>
<path d="M790 1553 c0 -14 14 -29 33 -36 9 -3 17 -3 17 1 -1 10 -50 45 -50 35z"/>
<path d="M1082 1549 c6 -17 61 -24 85 -10 15 9 13 10 -12 11 -16 0 -41 3 -54
7 -18 4 -23 2 -19 -8z"/>
<path d="M2092 1549 c6 -17 61 -24 85 -10 16 9 16 10 -3 11 -12 0 -36 3 -54 7
-25 5 -32 3 -28 -8z"/>
<path d="M2176 1515 c-19 -15 -27 -29 -23 -39 4 -9 10 -16 15 -16 8 0 45 70
40 75 -2 2 -16 -7 -32 -20z"/>
<path d="M138 1509 c-16 -12 -25 -26 -21 -34 8 -23 19 -18 42 20 23 40 18 43
-21 14z"/>
<path d="M190 1525 c-8 -33 -8 -65 0 -65 14 0 17 13 9 45 -3 17 -8 26 -9 20z"/>
<path d="M220 1522 c0 -18 27 -45 39 -38 6 4 9 12 6 17 -9 14 -45 31 -45 21z"/>
<path d="M1153 1505 c-23 -20 -25 -26 -13 -34 19 -13 26 -7 38 29 13 36 11 37
-25 5z"/>
<path d="M1207 1523 c-11 -10 -8 -63 3 -63 6 0 10 16 10 35 0 36 -2 40 -13 28z"/>
<path d="M1240 1521 c0 -21 13 -41 26 -41 21 0 17 23 -6 38 -11 7 -20 8 -20 3z"/>
<path d="M2220 1509 c-12 -22 -7 -49 9 -49 8 0 12 70 4 70 -1 0 -7 -9 -13 -21z"/>
<path d="M2262 1505 c6 -14 17 -25 25 -25 18 0 16 14 -5 33 -26 24 -33 21 -20
-8z"/>
<path d="M2398 1395 c-8 -19 -8 -28 2 -40 17 -21 29 -19 27 5 -1 11 -5 20 -11
20 -5 0 -1 9 9 20 16 18 17 20 1 20 -9 0 -21 -11 -28 -25z"/>
<path d="M5 1401 c-7 -13 26 -18 55 -10 26 7 23 9 -22 15 -15 1 -30 -1 -33 -5z"/>
<path d="M1015 1401 c-7 -12 22 -18 53 -13 18 4 20 7 10 13 -18 12 -55 11 -63
0z"/>
<path d="M2030 1400 c0 -16 57 -16 75 1 5 5 -7 9 -33 9 -23 0 -42 -4 -42 -10z"/>
<path d="M243 1378 c-34 -21 -43 -38 -20 -38 13 0 36 21 51 48 9 15 8 15 -31
-10z"/>
<path d="M2273 1377 c-35 -23 -42 -37 -20 -37 13 0 36 21 51 48 9 16 7 15 -31
-11z"/>
<path d="M720 1380 c0 -14 49 -44 58 -35 4 3 -4 15 -17 26 -26 21 -41 24 -41
9z"/>
<path d="M1248 1374 c-16 -8 -28 -19 -28 -24 0 -18 26 -10 50 15 26 28 18 31
-22 9z"/>
<path d="M1730 1383 c1 -11 70 -54 70 -44 0 13 -40 51 -55 51 -8 0 -15 -3 -15
-7z"/>
<path d="M517 1343 c-21 -21 22 -33 51 -14 10 6 8 10 -10 14 -29 8 -33 8 -41
0z"/>
<path d="M1533 1343 c-7 -2 -13 -9 -13 -14 0 -12 51 -11 70 1 13 8 13 10 -2
10 -9 0 -22 2 -30 4 -7 3 -19 2 -25 -1z"/>
<path d="M10 1299 c-7 -11 -10 -23 -7 -25 2 -2 9 7 15 21 14 30 7 33 -8 4z"/>
<path d="M142 1294 c-42 -29 -14 -84 44 -84 l29 0 -24 -19 c-14 -10 -40 -24
-60 -30 -29 -8 -38 -8 -53 6 -17 15 -18 15 -18 -6 0 -30 19 -34 66 -16 34 14
37 14 20 0 -11 -8 -27 -15 -35 -15 -11 0 -12 -3 -4 -11 15 -15 51 5 63 34 7
17 9 12 9 -25 1 -35 7 -54 22 -69 24 -24 39 -17 16 8 -40 46 -25 118 33 148
33 17 78 19 100 4 13 -9 13 -10 0 -8 -36 4 -58 -2 -64 -17 -8 -21 2 -33 13
-15 12 19 81 32 98 18 51 -43 60 -64 16 -42 -28 15 -63 5 -63 -17 0 -6 6 -6
16 3 13 11 21 10 49 -5 41 -22 52 -59 35 -113 -35 -108 -165 -152 -293 -98
-31 13 -36 13 -41 -1 -3 -8 -1 -24 4 -34 18 -33 11 -67 -16 -89 -30 -23 -74
-27 -92 -9 -9 9 -12 9 -12 0 0 -18 40 -34 68 -27 38 9 82 54 82 83 0 13 -5 32
-11 44 -15 27 -8 31 29 13 17 -9 54 -17 81 -19 59 -4 111 -38 131 -85 10 -25
9 -35 -4 -62 -20 -39 -16 -45 12 -19 17 16 19 25 12 50 -15 51 6 42 30 -13 31
-70 32 -166 3 -205 -25 -34 -67 -55 -93 -47 -20 6 -29 45 -10 45 6 0 10 -4 10
-10 0 -5 5 -10 10 -10 13 0 13 27 0 35 -15 9 -50 -14 -50 -33 0 -43 59 -56
107 -25 26 17 26 17 14 -4 -17 -32 -14 -80 5 -87 21 -8 33 2 15 13 -19 12 -16
48 8 111 28 75 27 152 -3 215 -23 48 -71 102 -110 122 -17 9 -15 12 17 22 47
16 82 44 101 83 19 37 21 121 4 140 -17 17 -21 84 -7 110 9 16 8 19 -3 16 -7
-3 -14 -16 -16 -31 l-3 -26 -37 24 c-54 35 -82 38 -147 20 -48 -14 -61 -15
-81 -4 -30 15 -31 45 -3 60 17 9 24 8 38 -6 15 -17 15 -17 -2 -11 -13 4 -17 2
-15 -6 7 -20 32 -15 36 6 7 35 -38 47 -76 20z"/>
<path d="M2172 1298 c-5 -7 -13 -23 -16 -35 -9 -27 25 -53 69 -53 l30 0 -35
-21 c-56 -35 -91 -41 -112 -22 -17 15 -18 15 -18 -4 0 -29 23 -35 67 -17 34
15 36 15 24 0 -7 -9 -20 -16 -27 -16 -8 0 -14 -4 -14 -10 0 -19 22 -10 50 20
l29 31 -6 -35 c-5 -34 20 -96 40 -96 5 0 7 3 5 8 -31 59 -38 86 -30 110 12 37
67 72 111 72 l36 0 -32 -20 c-18 -11 -33 -25 -33 -31 0 -8 7 -6 18 4 10 10 24
17 30 17 6 0 16 8 21 18 10 16 10 16 11 0 0 -11 8 -18 20 -18 34 0 22 18 -24
35 -41 16 -47 16 -105 -1 -52 -14 -66 -15 -86 -4 -30 16 -32 45 -6 60 27 14
38 13 44 -4 4 -10 1 -13 -9 -9 -15 6 -20 -12 -5 -21 11 -7 41 3 41 14 0 32
-67 53 -88 28z"/>
<path d="M694 1266 c-3 -8 -2 -28 4 -43 l9 -28 5 38 c4 39 -7 61 -18 33z"/>
<path d="M624 1259 c-4 -8 4 -21 21 -35 35 -28 41 -25 23 12 -15 31 -33 41
-44 23z"/>
<path d="M1644 1258 c-6 -10 45 -62 53 -54 6 5 -28 66 -37 66 -5 0 -12 -5 -16
-12z m26 -18 c0 -5 -2 -10 -4 -10 -3 0 -8 5 -11 10 -3 6 -1 10 4 10 6 0 11 -4
11 -10z"/>
<path d="M1708 1265 c-7 -7 2 -54 12 -60 4 -3 8 11 8 30 0 32 -7 43 -20 30z"/>
<path d="M736 1234 c-13 -34 -6 -43 18 -21 13 12 22 25 20 29 -9 14 -32 9 -38
-8z"/>
<path d="M1757 1243 c-4 -3 -7 -15 -7 -26 0 -19 1 -20 20 -2 11 10 20 22 20
27 0 10 -24 11 -33 1z"/>
<path d="M1849 1203 c-21 -5 -32 -43 -17 -60 21 -25 69 -9 53 17 -5 8 -11 7
-21 -1 -17 -14 -29 -6 -21 16 7 15 51 20 82 9 27 -11 55 -79 55 -136 0 -60
-31 -138 -55 -138 -8 0 -15 -4 -15 -9 0 -5 -19 -27 -41 -50 -35 -34 -48 -41
-83 -41 -37 -1 -68 -9 -130 -35 -19 -8 -19 -8 -3 15 9 14 17 39 17 56 0 47
-28 75 -80 81 -38 4 -49 1 -72 -21 -50 -45 -26 -106 40 -106 26 0 33 5 38 27
8 29 -17 56 -42 46 -22 -8 -11 -28 15 -27 24 1 27 -6 9 -24 -17 -17 -35 -15
-58 8 -16 16 -18 24 -9 44 24 51 95 53 132 4 26 -35 12 -77 -48 -136 -25 -24
-45 -51 -45 -59 0 -8 -5 -11 -10 -8 -14 9 -39 -55 -46 -118 -11 -97 50 -215
127 -248 32 -13 38 -29 12 -29 -10 0 -36 -9 -59 -19 -31 -14 -46 -30 -62 -65
-12 -25 -22 -56 -22 -68 0 -31 20 -101 27 -94 3 3 15 0 27 -6 32 -18 44 -18
58 0 10 14 10 15 -1 5 -34 -30 -102 32 -96 87 13 112 103 171 227 151 56 -10
128 -40 161 -69 34 -30 25 -5 -13 36 -45 47 -55 76 -41 114 7 19 21 30 47 37
38 11 60 4 83 -23 29 -34 -13 -85 -55 -69 -19 7 -14 35 6 40 13 4 13 3 0 -6
-13 -9 -13 -11 3 -11 9 0 17 7 17 16 0 27 -44 13 -48 -15 -5 -35 21 -52 59
-39 53 18 63 64 24 104 -33 33 -104 32 -136 -2 -30 -32 -29 -87 1 -119 29 -31
27 -31 -34 0 -29 15 -66 25 -91 25 -43 0 -93 29 -123 71 -18 25 -18 74 -1 95
9 11 8 14 -5 14 -21 0 -31 -43 -17 -81 7 -21 7 -29 0 -27 -6 2 -10 7 -9 12 1
5 -2 12 -7 15 -21 14 -43 95 -43 156 0 57 3 68 28 94 33 37 70 47 97 27 16
-12 18 -17 8 -27 -10 -10 -13 -10 -13 -1 0 7 -7 12 -15 12 -19 0 -19 -14 -1
-29 19 -16 46 -3 46 24 0 33 -24 49 -65 42 -19 -3 -35 -3 -35 1 0 10 89 69
130 86 176 72 341 -52 276 -207 -10 -22 -12 -37 -6 -37 6 0 12 6 14 13 2 6 9
30 16 52 24 83 -32 181 -115 201 l-35 9 53 41 c90 70 121 172 89 289 -10 36
-17 43 -59 58 -27 9 -50 17 -53 16 -3 -1 -12 -3 -21 -6z"/>
<path d="M575 1189 c-4 -6 -5 -12 -2 -15 8 -8 87 8 81 17 -7 13 -72 11 -79 -2z"/>
<path d="M1585 1191 c-3 -5 -2 -12 3 -15 13 -8 92 6 86 15 -7 12 -81 11 -89 0z"/>
<path d="M1076 1171 c-12 -19 15 -41 42 -35 29 8 29 21 0 19 -13 -1 -26 5 -29
13 -4 12 -7 13 -13 3z"/>
<path d="M634 1158 c-33 -8 -51 -33 -33 -44 6 -3 23 5 37 17 15 13 29 25 31
27 13 7 -8 8 -35 0z m-11 -23 c-3 -9 -8 -14 -10 -11 -3 3 -2 9 2 15 9 16 15
13 8 -4z"/>
<path d="M1658 1163 c-33 -5 -56 -29 -40 -45 11 -11 32 -3 32 13 0 6 -5 7 -12
3 -7 -4 -8 -3 -4 4 4 6 13 9 20 6 7 -3 19 2 26 11 7 8 11 14 9 14 -2 -1 -16
-4 -31 -6z"/>
<path d="M1730 1162 c0 -4 9 -15 20 -25 26 -22 26 -76 0 -109 -23 -31 -70 -51
-102 -46 -23 4 -23 5 5 16 15 6 27 19 27 27 0 15 -2 15 -22 1 -27 -19 -79 -21
-96 -4 -7 7 -12 8 -12 2 0 -19 42 -51 47 -36 3 6 9 12 14 12 4 0 6 -7 3 -15
-9 -22 38 -23 114 -3 55 14 95 -1 90 -34 -2 -13 -11 -24 -21 -26 -13 -3 -17 2
-15 14 4 23 -30 31 -38 10 -15 -40 49 -62 79 -28 35 38 15 73 -45 81 l-43 7
57 27 c66 32 83 33 98 10 9 -16 10 -15 8 7 -3 26 -10 28 -65 17 l-28 -6 28 12
c29 12 36 27 12 27 -8 0 -24 -13 -37 -30 -19 -27 -48 -44 -33 -20 13 21 7 81
-10 100 -18 20 -35 26 -35 12z"/>
<path d="M2398 1159 c-28 -16 -21 -30 7 -17 14 6 25 15 25 20 0 11 -11 10 -32
-3z"/>
<path d="M1680 1125 c-18 -20 -21 -28 -12 -37 15 -15 27 -3 36 35 8 33 6 34
-24 2z"/>
<path d="M662 1128 c-17 -17 -15 -48 4 -48 9 0 14 7 12 18 -1 9 1 23 5 30 10
15 -5 16 -21 0z"/>
<path d="M2307 1133 c-2 -5 -7 -21 -11 -36 -6 -26 -5 -27 14 -17 11 6 20 19
20 30 0 20 -16 36 -23 23z"/>
<path d="M261 1099 c-15 -44 -14 -46 14 -19 28 26 33 50 11 50 -8 0 -19 -14
-25 -31z"/>
<path d="M1285 1115 c-3 -8 -7 -22 -10 -30 -6 -21 9 -19 29 4 10 11 15 25 11
30 -9 16 -25 13 -30 -4z"/>
<path d="M2015 1080 c3 -19 11 -39 18 -45 18 -15 19 -55 1 -82 -18 -28 -12
-42 11 -23 8 7 15 24 15 39 0 25 1 24 45 -19 25 -25 49 -60 55 -79 8 -30 6
-36 -20 -62 -30 -30 -58 -36 -90 -19 -52 28 -44 90 10 90 17 0 30 -4 30 -10 0
-5 -6 -10 -14 -10 -21 0 -31 -21 -15 -30 32 -21 65 30 37 58 -31 31 -98 -1
-98 -47 0 -60 68 -95 126 -65 55 28 70 77 38 122 -19 27 -13 27 52 3 28 -11
66 -18 83 -16 27 4 39 -3 76 -39 24 -24 45 -54 48 -67 3 -13 4 -7 3 13 -3 40
-26 73 -57 83 -23 8 -15 25 10 25 17 0 75 39 60 40 -4 0 -28 -10 -54 -21 -81
-36 -187 -14 -282 57 -17 13 -36 24 -42 24 -6 0 -11 5 -11 11 0 6 8 7 23 2 33
-11 78 -8 88 8 14 22 6 53 -15 57 -22 5 -41 -12 -31 -28 5 -8 11 -6 21 7 14
17 14 16 12 -7 -6 -52 -89 -31 -121 30 l-18 35 6 -35z"/>
<path d="M317 1093 c-12 -11 -8 -25 5 -17 7 4 8 3 4 -5 -4 -6 -10 -10 -14 -7
-4 2 -16 0 -27 -5 -17 -6 -15 -8 11 -8 31 -1 71 29 57 42 -8 9 -28 9 -36 0z"/>
<path d="M1328 1082 c-7 -11 -20 -21 -28 -25 -8 -3 -1 -6 16 -6 31 -1 54 14
54 36 0 19 -27 16 -42 -5z"/>
<path d="M2354 1084 c3 -8 2 -13 -2 -10 -4 2 -16 -2 -27 -10 -18 -13 -18 -14
7 -14 26 0 63 31 51 43 -13 14 -35 7 -29 -9z"/>
<path d="M80 1060 c0 -22 16 -27 23 -7 2 6 8 9 12 5 4 -4 5 -14 2 -23 -7 -17
-49 -20 -78 -5 -10 6 -19 7 -19 2 0 -13 68 -34 90 -27 21 7 37 46 25 64 -3 6
-17 11 -31 11 -17 0 -24 -5 -24 -20z"/>
<path d="M271 1026 c13 -14 101 -13 106 0 3 8 -15 11 -56 10 -37 0 -56 -5 -50
-10z"/>
<path d="M1325 1033 c-53 -7 -59 -11 -44 -29 7 -9 14 -23 15 -31 6 -35 44 -42
44 -7 0 17 -16 19 -24 2 -3 -7 -4 -5 -3 4 1 9 -7 24 -18 32 -19 14 -16 15 34
13 36 -1 55 2 58 11 5 12 -3 13 -62 5z"/>
<path d="M2340 1030 c-35 -6 -35 -7 -9 -14 35 -10 71 -4 77 12 4 13 -12 14
-68 2z"/>
<path d="M192 997 c-21 -22 -20 -37 0 -37 9 0 31 50 25 56 -2 2 -13 -7 -25
-19z"/>
<path d="M1251 983 c-1 -24 4 -43 9 -43 12 0 12 37 0 65 -7 15 -9 10 -9 -22z"/>
<path d="M233 975 c-1 -26 3 -35 14 -35 11 0 14 6 9 23 -3 12 -6 28 -6 35 0
29 -15 9 -17 -23z"/>
<path d="M271 997 c9 -7 14 -17 12 -23 -2 -6 4 -17 12 -24 14 -12 18 -11 26 1
6 10 2 20 -17 37 -14 12 -30 22 -37 22 -7 -1 -6 -5 4 -13z"/>
<path d="M1207 999 c-9 -6 -17 -17 -17 -24 0 -23 28 -18 35 6 9 26 4 30 -18
18z"/>
<path d="M2222 994 c-21 -14 -22 -34 -2 -34 10 0 34 39 28 46 -2 2 -14 -3 -26
-12z"/>
<path d="M2264 975 c0 -35 9 -45 21 -24 8 12 -2 59 -13 59 -4 0 -7 -16 -8 -35z"/>
<path d="M2306 980 c19 -37 29 -43 43 -26 9 11 6 18 -15 35 -37 29 -45 26 -28
-9z"/>
<path d="M50 983 c0 -5 14 -22 30 -38 22 -22 30 -25 30 -13 0 9 -13 26 -30 38
-16 12 -30 17 -30 13z"/>
<path d="M871 977 c9 -7 19 -23 24 -36 5 -16 10 -20 17 -13 15 15 -17 62 -40
62 -15 -1 -16 -2 -1 -13z"/>
<path d="M1901 955 c12 -19 23 -35 25 -35 11 0 2 40 -12 54 -27 28 -34 17 -13
-19z"/>
<path d="M7 946 c-4 -10 -1 -13 9 -9 15 6 19 23 5 23 -5 0 -11 -7 -14 -14z"/>
<path d="M6 891 c-3 -5 6 -8 20 -8 13 0 27 -3 31 -6 9 -10 -5 -37 -19 -37 -9
0 -9 3 2 11 13 9 13 10 0 6 -17 -4 -20 -29 -5 -34 6 -2 19 3 28 10 27 19 7 67
-27 67 -14 0 -27 -4 -30 -9z"/>
<path d="M396 881 c-18 -7 -18 -8 -2 -14 21 -8 66 1 66 14 0 11 -37 11 -64 0z"/>
<path d="M1410 880 c-14 -4 -18 -9 -10 -10 8 -1 25 -3 36 -6 12 -2 27 3 34 11
10 13 9 15 -11 14 -13 -1 -35 -5 -49 -9z"/>
<path d="M170 871 c0 -13 46 -52 53 -44 13 12 7 22 -23 37 -16 8 -30 11 -30 7z"/>
<path d="M1189 862 c14 -27 38 -45 51 -37 14 9 4 22 -31 41 -29 15 -30 14 -20
-4z"/>
<path d="M2214 852 c16 -17 33 -29 38 -26 15 9 9 21 -19 35 -48 23 -49 23 -19
-9z"/>
<path d="M2418 873 c7 -3 16 -2 19 1 4 3 -2 6 -13 5 -11 0 -14 -3 -6 -6z"/>
<path d="M690 845 c-13 -14 -20 -25 -16 -25 15 0 66 31 66 40 0 18 -26 10 -50
-15z"/>
<path d="M1706 848 c-18 -26 -10 -41 8 -16 7 10 15 15 18 13 3 -3 11 1 18 10
10 13 9 15 -8 15 -12 0 -28 -10 -36 -22z"/>
<path d="M890 821 c0 -5 16 -11 36 -13 34 -4 50 3 37 16 -10 9 -73 7 -73 -3z"/>
<path d="M1910 820 c0 -5 9 -11 20 -11 11 -1 25 -2 32 -3 6 -1 13 5 16 12 2 8
-8 12 -32 12 -20 0 -36 -4 -36 -10z"/>
<path d="M228 781 c-12 -10 -18 -23 -14 -29 9 -14 46 -16 46 -2 0 5 -8 6 -17
3 -16 -6 -16 -5 -4 10 17 21 35 22 52 1 31 -38 -31 -69 -95 -47 -50 17 -90 17
-125 -1 -32 -17 -59 -46 -43 -46 6 0 14 5 17 10 3 6 18 10 33 10 19 0 23 3 14
9 -25 15 34 22 74 8 71 -23 100 -101 57 -149 -9 -10 -13 -21 -9 -26 4 -4 17 4
28 18 15 19 19 35 15 67 -3 32 -1 40 9 36 8 -3 12 -9 9 -13 -7 -11 23 -40 41
-40 8 0 14 5 14 10 0 6 -9 10 -19 10 -11 0 -23 5 -27 11 -4 8 1 9 17 3 48 -16
74 -11 78 16 3 24 2 24 -16 7 -11 -9 -27 -17 -37 -17 -21 0 -92 36 -102 51 -4
8 -3 9 5 5 22 -14 72 5 82 31 18 47 -42 86 -83 54z"/>
<path d="M1244 785 c-22 -16 -12 -45 16 -45 17 0 20 4 15 20 -8 24 7 26 29 4
19 -19 20 -26 4 -42 -15 -15 -55 -15 -111 0 -55 14 -109 4 -139 -27 -29 -31
-40 -32 -33 -2 6 24 -19 57 -32 43 -4 -4 -1 -11 7 -16 15 -9 14 -13 -17 -171
-12 -64 55 -150 130 -166 28 -6 38 -23 13 -23 -8 0 -36 -21 -63 -48 -66 -64
-91 -138 -75 -225 11 -60 26 -87 46 -87 8 0 7 3 -1 8 -38 24 -46 144 -13 219
24 57 60 99 41 49 -15 -38 -5 -32 15 10 23 48 78 84 129 84 22 0 60 9 84 20
46 21 62 21 36 0 -9 -8 -15 -29 -15 -56 0 -36 5 -46 29 -63 41 -29 95 -28 126
4 41 40 28 88 -28 108 -26 10 -57 -10 -57 -36 0 -22 32 -51 44 -40 13 14 5 33
-14 33 -11 0 -20 4 -20 9 0 31 65 22 75 -10 4 -12 0 -30 -10 -45 -23 -35 -89
-31 -118 8 -27 36 -17 68 40 129 49 52 50 65 2 25 -74 -62 -216 -84 -293 -46
-55 27 -79 63 -84 126 -4 44 -1 55 18 74 18 18 30 21 57 17 30 -5 33 -4 22 9
-12 15 -31 15 -74 -1 -14 -5 -10 2 13 24 36 34 63 38 106 16 16 -9 31 -14 33
-11 9 8 -30 36 -50 36 -18 1 -19 2 -6 10 9 5 31 5 55 -1 21 -6 45 -11 52 -11
6 -1 10 -3 7 -6 -2 -3 2 -14 10 -26 19 -27 19 -90 0 -106 -17 -14 -20 -30 -4
-30 15 0 41 68 34 91 -7 21 -11 21 76 4 41 -8 50 0 38 30 -7 18 -8 19 -8 1 -1
-15 -6 -17 -38 -12 -21 4 -46 7 -55 8 -9 1 -15 5 -12 9 2 4 -3 10 -12 13 -8 3
-13 10 -9 15 3 6 12 8 21 4 35 -13 72 60 42 84 -22 18 -57 21 -74 8z m21 -25
c3 -5 1 -10 -4 -10 -6 0 -11 5 -11 10 0 6 2 10 4 10 3 0 8 -4 11 -10z"/>
<path d="M2274 790 c-22 -9 -37 -34 -27 -44 4 -3 15 -6 26 -6 14 0 18 5 14 20
-6 24 15 27 34 4 9 -11 10 -20 2 -32 -15 -25 -53 -30 -104 -14 -57 18 -109 10
-146 -23 -16 -13 -23 -25 -16 -25 6 0 15 5 18 10 9 15 58 12 81 -5 23 -17 34
-19 34 -5 0 6 -14 17 -31 24 -20 8 -27 16 -20 20 13 9 71 -2 88 -16 7 -5 17
-7 22 -3 6 3 8 0 5 -8 -3 -8 2 -20 11 -27 25 -21 14 -91 -19 -112 -6 -4 -7
-11 -2 -15 14 -14 46 38 46 75 l0 35 24 -22 c14 -13 31 -21 38 -18 9 4 8 6 -4
6 -9 1 -20 6 -23 12 -5 7 7 10 36 7 40 -3 44 -1 47 22 3 24 3 24 -11 6 -11
-15 -21 -17 -48 -12 -19 4 -42 7 -52 7 -9 0 -15 4 -12 10 4 5 1 9 -4 9 -6 0
-11 7 -11 16 0 10 6 14 18 10 39 -12 75 49 45 76 -28 24 -37 26 -59 18z"/>
<path d="M1404 774 c3 -9 -4 -30 -16 -47 l-23 -32 25 16 c27 17 42 79 20 79
-7 0 -9 -7 -6 -16z"/>
<path d="M505 750 c17 -19 18 -25 6 -63 -43 -146 -45 -203 -7 -274 16 -32 71
-85 104 -102 32 -17 28 -25 -23 -40 -55 -16 -93 -58 -102 -114 -3 -23 -6 -43
-6 -45 8 -45 15 -62 25 -62 9 0 9 3 0 12 -18 18 -15 85 6 121 48 88 147 114
268 71 37 -12 76 -32 88 -42 58 -53 60 -36 2 26 -54 58 -63 85 -41 118 33 51
110 50 133 -2 10 -20 8 -28 -8 -44 -11 -11 -27 -20 -35 -20 -16 0 -38 34 -28
44 10 10 25 7 18 -4 -3 -5 -2 -10 4 -10 17 0 21 17 7 29 -11 9 -18 8 -30 -4
-30 -31 -12 -65 34 -65 57 0 79 68 36 109 -21 19 -32 22 -72 18 -78 -7 -109
-74 -64 -137 l19 -27 -38 19 c-21 10 -56 21 -77 24 -73 10 -85 15 -124 50 -44
40 -51 73 -24 112 13 19 13 22 1 22 -25 0 -40 -28 -33 -61 10 -53 -19 -17 -39
47 -19 59 -16 144 6 170 6 7 7 19 3 26 -4 7 -4 10 1 6 4 -4 14 -3 21 3 33 28
94 17 94 -17 0 -12 -4 -12 -20 -2 -26 16 -40 0 -15 -18 22 -17 34 -14 49 9 8
12 8 22 0 34 -9 14 -24 18 -68 16 -31 -1 -54 2 -52 6 3 4 7 20 10 36 5 29 -6
45 -33 45 -11 0 -10 -5 4 -20z"/>
<path d="M1510 761 c0 -5 7 -12 16 -15 12 -5 14 -14 10 -34 l-6 -27 14 25 c10
17 11 30 5 42 -10 18 -39 25 -39 9z"/>
<path d="M743 721 c0 -22 5 -37 9 -35 11 7 10 74 -1 74 -6 0 -9 -18 -8 -39z"/>
<path d="M1760 724 c0 -21 4 -33 10 -29 6 3 10 19 10 36 0 16 -4 29 -10 29 -5
0 -10 -16 -10 -36z"/>
<path d="M786 718 c-7 -18 -11 -36 -7 -40 3 -4 31 -10 61 -14 45 -5 53 -4 43
7 -8 8 -32 12 -60 11 l-48 -2 28 21 c29 22 36 49 12 49 -8 0 -21 -15 -29 -32z"/>
<path d="M1801 720 c-11 -32 -1 -40 18 -16 9 11 9 15 -1 20 -7 3 -3 3 10 0 16
-4 22 -1 22 10 0 29 -37 18 -49 -14z"/>
<path d="M2402 730 c-17 -28 -15 -32 8 -20 11 6 20 17 20 25 0 21 -13 19 -28
-5z"/>
<path d="M680 727 c0 -8 11 -22 24 -30 24 -16 24 -16 17 11 -8 29 -41 44 -41
19z"/>
<path d="M1700 727 c0 -8 9 -22 20 -32 19 -18 20 -17 20 1 0 20 -17 44 -32 44
-4 0 -8 -6 -8 -13z"/>
<path d="M2010 736 c0 -4 5 -15 12 -25 9 -15 9 -30 -1 -68 -22 -81 -24 -127
-8 -166 19 -45 89 -97 131 -97 28 -1 29 -2 11 -11 -85 -47 -122 -92 -148 -181
-21 -71 8 -189 46 -188 8 1 7 5 -3 13 -46 35 -50 139 -10 229 18 42 50 81 50
62 0 -4 12 4 28 18 37 35 60 45 112 51 49 5 114 29 124 45 3 6 -18 1 -47 -10
-69 -26 -183 -22 -224 8 -41 30 -75 101 -69 144 7 45 49 84 76 70 27 -14 34
-12 20 5 -16 19 -39 19 -60 0 -16 -15 -17 -12 -16 41 1 38 -3 58 -11 61 -7 3
-13 2 -13 -1z"/>
<path d="M1 704 c0 -11 3 -14 6 -6 3 7 2 16 -1 19 -3 4 -6 -2 -5 -13z"/>
<path d="M110 692 c0 -11 41 -34 48 -27 4 4 -2 13 -12 21 -22 15 -36 18 -36 6z"/>
<path d="M1845 666 c41 -13 55 -12 55 5 0 5 -21 9 -47 8 l-48 -1 40 -12z"/>
<path d="M23 633 c-10 -10 -13 -14 -6 -9 7 5 28 6 46 2 30 -5 31 -5 13 9 -25
19 -30 19 -53 -2z"/>
<path d="M704 625 c-10 -15 -15 -38 -12 -60 4 -32 2 -34 -17 -29 -11 4 -24 10
-30 13 -5 4 -25 8 -42 10 -30 2 -33 0 -33 -26 1 -24 2 -25 11 -10 14 25 58 21
102 -8 20 -14 37 -28 37 -31 0 -3 -5 -2 -11 1 -17 11 -58 -4 -69 -25 -23 -42
21 -86 68 -69 28 11 30 49 3 49 -25 0 -36 -16 -15 -24 10 -4 13 -2 8 6 -4 7
-3 8 5 4 15 -10 4 -26 -18 -26 -22 0 -41 19 -41 42 0 26 40 32 114 17 68 -13
108 -5 149 29 26 23 20 32 -11 16 -33 -16 -67 -12 -93 12 -16 15 -19 15 -19 2
0 -23 27 -41 50 -35 11 3 20 2 20 -3 0 -12 -42 -17 -77 -8 -40 10 -83 61 -83
97 0 16 9 40 21 55 11 14 16 26 10 26 -6 0 -18 -11 -27 -25z"/>
<path d="M812 621 c33 -30 56 -27 44 4 -3 10 -12 15 -21 11 -8 -3 -15 -1 -15
4 0 6 -9 10 -20 10 -18 0 -16 -4 12 -29z"/>
<path d="M1715 619 c-10 -19 -14 -41 -10 -60 7 -32 -10 -41 -20 -10 -7 24 -44
38 -55 21 -4 -7 -12 -10 -18 -6 -16 10 -37 -23 -24 -36 8 -8 12 -9 12 -1 0 6
18 13 40 15 26 2 40 -1 40 -8 0 -7 7 -14 15 -18 8 -3 15 -1 15 5 0 6 3 8 8 5
4 -2 6 14 4 36 -3 31 1 45 19 64 18 20 20 24 6 24 -9 0 -24 -14 -32 -31z m-50
-59 c3 -5 -1 -10 -10 -10 -9 0 -13 5 -10 10 3 6 8 10 10 10 2 0 7 -4 10 -10z"/>
<path d="M1808 640 c12 -5 22 -14 22 -20 0 -5 5 -10 11 -10 8 0 7 6 -2 18 -13
15 -12 16 3 4 9 -8 14 -20 11 -28 -6 -17 13 -19 23 -2 10 16 -33 48 -65 47
-25 0 -25 0 -3 -9z"/>
<path d="M773 595 c11 -37 24 -45 34 -20 5 15 -22 55 -38 55 -4 0 -2 -16 4
-35z"/>
<path d="M1300 620 c0 -8 24 -20 41 -20 6 0 8 4 5 9 -8 12 -46 21 -46 11z"/>
<path d="M1786 603 c8 -34 19 -47 32 -39 15 9 2 45 -20 57 -17 9 -18 7 -12
-18z"/>
<path d="M144 606 c-6 -16 11 -46 27 -46 5 0 6 7 3 15 -4 8 -11 12 -18 8 -6
-4 -6 0 2 9 9 11 10 18 2 23 -5 3 -13 -1 -16 -9z"/>
<path d="M1154 609 c-3 -6 6 -23 20 -38 l27 -26 -7 30 c-11 47 -24 59 -40 34z"/>
<path d="M2173 605 c-5 -15 22 -55 37 -55 4 0 2 16 -4 35 -12 38 -23 44 -33
20z"/>
<path d="M90 571 c0 -20 50 -47 72 -38 7 3 -2 8 -20 12 -18 4 -35 11 -38 16
-3 5 3 6 13 2 16 -6 16 -5 4 10 -18 22 -31 22 -31 -2z"/>
<path d="M1104 579 c-9 -15 15 -36 49 -45 l28 -6 -31 31 c-35 35 -36 35 -46
20z"/>
<path d="M2120 570 c0 -23 5 -26 50 -34 34 -7 35 -7 10 8 -14 8 -28 12 -32 10
-4 -3 -5 1 -2 9 3 8 -2 17 -10 20 -11 5 -16 0 -16 -13z"/>
<path d="M615 570 c4 -6 10 -8 15 -5 5 3 11 1 15 -5 3 -5 12 -10 18 -10 16 1
-23 30 -41 30 -7 0 -10 -5 -7 -10z"/>
<path d="M2342 558 c-15 -15 -15 -41 0 -56 17 -17 73 -15 88 3 11 14 10 14
-15 5 -15 -6 -36 -8 -46 -5 -23 8 -26 45 -3 45 8 0 12 -4 9 -10 -3 -5 -1 -10
5 -10 17 0 7 34 -10 38 -9 1 -21 -3 -28 -10z"/>
<path d="M1880 548 c0 -15 43 -20 56 -7 11 12 8 14 -21 14 -19 0 -35 -3 -35
-7z"/>
<path d="M67 524 c-14 -14 6 -24 46 -24 23 0 47 4 54 8 7 4 -9 7 -35 6 -26 0
-50 3 -53 8 -3 4 -8 5 -12 2z"/>
<path d="M1080 515 c0 -11 12 -15 48 -14 34 0 41 3 27 8 -11 5 -30 7 -42 6
-12 -1 -20 2 -17 6 3 5 0 9 -5 9 -6 0 -11 -7 -11 -15z"/>
<path d="M2097 524 c-14 -15 6 -24 51 -23 42 1 44 2 17 9 -16 4 -37 10 -46 14
-8 4 -18 4 -22 0z"/>
<path d="M1806 506 c3 -8 24 -18 47 -22 l42 -7 -33 -8 c-39 -8 -94 5 -112 26
-7 8 -17 15 -22 15 -6 0 -4 -7 3 -16 12 -15 11 -16 -7 -10 -12 3 -33 2 -48 -3
-20 -8 -26 -17 -26 -40 0 -31 12 -45 47 -53 24 -6 59 24 48 41 -8 14 -45 14
-45 1 0 -5 9 -10 21 -10 11 0 17 -4 14 -10 -11 -18 -54 -11 -66 12 -10 18 -8
24 7 35 22 16 50 16 106 2 48 -13 115 0 142 26 19 20 26 19 26 -4 0 -21 27
-48 37 -37 4 4 1 11 -6 15 -7 5 -13 20 -13 33 0 27 -16 29 -61 8 -24 -12 -33
-11 -63 3 -42 21 -45 21 -38 3z"/>
<path d="M145 480 c-33 -21 -39 -43 -15 -48 10 -2 23 11 33 33 9 19 16 35 14
35 -1 0 -15 -9 -32 -20z"/>
<path d="M225 478 c8 -25 25 -39 37 -32 11 7 0 28 -23 42 -19 12 -20 11 -14
-10z"/>
<path d="M1155 476 c-26 -21 -29 -46 -5 -46 10 0 44 59 38 65 -2 2 -17 -6 -33
-19z"/>
<path d="M1206 478 c-5 -16 -5 -36 0 -45 7 -16 8 -15 11 5 3 12 3 32 0 45 -3
21 -4 20 -11 -5z"/>
<path d="M1240 491 c0 -18 19 -51 30 -51 17 0 11 26 -10 45 -13 11 -20 14 -20
6z"/>
<path d="M2178 479 c-29 -22 -37 -49 -15 -49 12 0 22 14 45 63 5 11 0 8 -30
-14z"/>
<path d="M2219 473 c-10 -28 -6 -53 10 -53 8 0 11 80 3 80 -1 0 -7 -12 -13
-27z"/>
<path d="M2255 478 c8 -25 25 -39 37 -32 11 7 0 28 -23 42 -19 12 -20 11 -14
-10z"/>
<path d="M188 465 c-4 -16 -3 -34 2 -38 12 -13 17 5 10 38 l-6 30 -6 -30z"/>
<path d="M353 452 c-44 -38 -117 -62 -189 -63 -69 -1 -110 16 -145 58 -13 17
-19 21 -16 10 4 -10 7 -22 7 -26 0 -11 60 -43 94 -51 28 -6 29 -8 11 -15 -26
-11 -93 -74 -106 -100 -6 -11 1 -5 16 13 15 18 30 30 35 27 5 -3 15 3 22 13
22 32 61 51 108 53 25 1 63 10 84 21 51 23 51 23 32 -7 -25 -38 -20 -73 15
-106 44 -41 98 -40 133 1 21 26 23 34 15 59 -7 19 -21 33 -40 40 -36 12 -56 6
-65 -21 -8 -25 18 -53 41 -44 22 8 13 32 -10 28 -11 -2 -15 2 -13 10 7 20 33
21 58 0 21 -17 22 -21 9 -48 -23 -47 -104 -46 -135 1 -21 32 -12 55 42 116 24
27 44 52 44 54 0 11 -17 3 -47 -23z"/>
<path d="M2398 457 c-16 -13 -28 -28 -28 -34 0 -7 -9 -18 -19 -25 -44 -31 -34
-106 18 -133 34 -17 61 -20 61 -5 0 6 -10 10 -23 10 -38 0 -67 27 -67 64 0 24
12 46 45 85 57 67 61 77 13 38z"/>
<path d="M4 368 c-6 -9 -7 -9 26 -13 14 -1 32 2 40 7 11 7 10 8 -7 5 -13 -3
-23 -2 -23 2 0 10 -30 10 -36 -1z"/>
<path d="M1015 371 c-9 -16 15 -23 53 -16 35 8 36 8 12 15 -36 11 -58 11 -65
1z"/>
<path d="M2036 372 c-9 -15 9 -23 40 -18 30 6 45 16 23 16 -8 0 -24 3 -35 6
-12 3 -25 1 -28 -4z"/>
<path d="M2402 368 c-23 -23 -7 -58 19 -42 8 4 7 9 -2 14 -10 7 -10 11 0 24
16 19 1 22 -17 4z"/>
<path d="M237 342 c-29 -18 -35 -32 -14 -32 15 0 53 37 46 44 -2 3 -17 -3 -32
-12z"/>
<path d="M716 352 c-2 -4 11 -17 30 -30 39 -25 45 -16 11 16 -25 24 -33 26
-41 14z"/>
<path d="M1252 339 c-18 -10 -30 -24 -27 -29 7 -12 35 1 55 25 20 24 7 26 -28
4z"/>
<path d="M1732 348 c3 -7 19 -20 37 -30 31 -18 32 -18 21 2 -16 29 -66 54 -58
28z"/>
<path d="M2265 335 c-16 -13 -25 -24 -18 -25 7 0 25 11 40 25 36 32 17 32 -22
0z"/>
<path d="M510 300 c0 -5 19 -10 43 -10 31 0 38 3 27 10 -20 13 -70 13 -70 0z"/>
<path d="M1524 299 c-6 -11 19 -16 51 -9 18 3 25 8 19 13 -14 8 -64 5 -70 -4z"/>
<path d="M47 283 c-4 -3 -7 -11 -7 -17 0 -6 5 -5 12 2 6 6 9 14 7 17 -3 3 -9
2 -12 -2z"/>
<path d="M2070 265 c-8 -22 -7 -33 5 -51 8 -13 20 -24 26 -24 6 0 1 13 -9 28
-15 21 -18 32 -10 46 5 9 7 20 4 23 -3 3 -10 -7 -16 -22z"/>
<path d="M144 256 c-24 -20 -27 -28 -18 -43 15 -24 53 -43 73 -35 12 5 8 8
-13 12 -16 3 -34 13 -40 23 -9 15 -7 22 13 38 13 11 21 22 19 25 -3 3 -19 -6
-34 -20z"/>
<path d="M1170 267 c-50 -25 -29 -91 28 -89 47 1 30 -22 -33 -43 -43 -15 -57
-16 -68 -6 -17 14 -30 1 -18 -18 12 -19 130 16 154 46 23 29 92 49 121 34 l21
-10 -22 0 c-32 -1 -53 -12 -53 -26 0 -11 5 -11 28 1 29 15 82 19 82 6 0 -5 11
-15 25 -22 13 -7 26 -20 29 -29 2 -9 2 3 -1 26 -4 27 -1 48 7 58 7 9 10 19 6
23 -14 13 -36 -30 -29 -57 6 -26 5 -26 -27 6 -35 35 -82 49 -133 39 -83 -18
-104 -18 -120 -1 -10 9 -17 21 -17 26 0 14 46 32 65 25 17 -6 12 -26 -6 -26
-6 0 -7 5 -3 12 4 7 3 8 -5 4 -14 -9 -5 -26 15 -26 24 0 30 31 9 46 -23 17
-24 17 -55 1z"/>
<path d="M2174 254 c-24 -23 -25 -27 -11 -47 8 -13 27 -23 43 -25 l29 -2 -32
14 c-34 16 -41 34 -21 54 19 19 37 14 31 -8 -4 -15 0 -20 17 -20 29 0 23 40
-8 51 -18 7 -28 3 -48 -17z m62 -21 c-10 -10 -19 5 -10 18 6 11 8 11 12 0 2
-7 1 -15 -2 -18z"/>
<path d="M195 260 c3 -5 11 -10 16 -10 6 0 7 5 4 10 -3 6 -11 10 -16 10 -6 0
-7 -4 -4 -10z"/>
<path d="M36 233 c4 -12 12 -28 20 -34 20 -17 17 2 -6 31 -18 24 -19 24 -14 3z"/>
<path d="M177 244 c-10 -11 3 -24 24 -24 10 0 19 5 19 11 0 6 -7 8 -16 5 -8
-3 -12 -2 -9 4 7 11 -8 14 -18 4z"/>
<path d="M924 235 c-4 -8 -3 -26 0 -40 8 -31 -9 -40 -46 -26 -51 19 -94 -44
-48 -69 11 -6 25 -8 30 -5 14 8 13 32 -2 41 -7 5 -9 2 -6 -8 4 -9 0 -15 -8
-15 -24 0 -16 36 9 42 55 14 105 -38 112 -118 1 -15 6 -31 10 -35 11 -10 -2
89 -16 121 -6 14 -15 24 -20 22 -4 -3 -10 -1 -13 4 -4 5 -2 13 4 16 6 4 8 15
5 25 -4 12 2 27 14 39 l21 21 -20 0 c-11 0 -23 -7 -26 -15z"/>
<path d="M1943 238 c-4 -7 -8 -26 -8 -43 0 -29 -1 -30 -41 -27 -38 3 -74 -15
-74 -36 1 -30 65 -45 65 -14 0 6 -4 11 -10 10 -5 -2 -9 -6 -7 -10 1 -5 -5 -8
-13 -8 -18 0 -20 21 -3 38 20 20 56 14 88 -15 24 -22 32 -39 37 -80 3 -29 9
-53 13 -53 5 0 7 8 5 18 -2 9 -7 38 -10 65 -4 29 -11 47 -19 47 -19 0 -40 27
-27 34 5 3 12 0 14 -6 3 -7 3 2 0 20 -4 23 0 38 12 52 16 18 16 20 2 20 -9 0
-19 -6 -24 -12z"/>
<path d="M693 224 c-3 -8 -1 -25 5 -37 10 -20 11 -18 11 16 1 39 -5 48 -16 21z"/>
<path d="M1050 226 c0 -16 28 -42 36 -33 7 6 -18 47 -28 47 -5 0 -8 -6 -8 -14z"/>
<path d="M1646 233 c-10 -10 -7 -25 4 -18 5 3 7 0 4 -9 -3 -9 2 -17 15 -21 33
-10 25 -27 -11 -25 -55 3 -68 1 -68 -14 0 -11 9 -11 49 -2 27 6 52 14 56 18 7
7 -19 63 -34 72 -4 3 -11 3 -15 -1z"/>
<path d="M1710 213 c0 -16 4 -34 9 -42 6 -9 9 0 8 28 -1 22 -5 41 -9 41 -4 0
-8 -12 -8 -27z"/>
<path d="M622 218 c2 -6 19 -23 37 -36 l32 -26 -17 37 c-11 24 -25 37 -37 37
-10 0 -17 -5 -15 -12z"/>
<path d="M443 213 c-7 -2 -13 -19 -13 -36 l0 -30 -22 19 c-61 53 -131 58 -183
13 -19 -17 -35 -37 -35 -45 0 -7 15 2 33 21 33 36 73 51 108 40 16 -5 18 -9 8
-21 -10 -12 -8 -13 14 -5 20 8 28 6 43 -10 23 -25 44 -24 44 3 0 12 7 30 17
40 16 18 11 22 -14 11z"/>
<path d="M740 201 c-17 -33 -11 -41 14 -18 13 12 22 25 20 29 -9 14 -23 9 -34
-11z"/>
<path d="M1763 208 c-6 -7 -13 -21 -16 -31 -6 -17 -6 -17 18 0 24 18 34 43 16
43 -5 0 -13 -6 -18 -12z"/>
<path d="M2280 199 c-14 -5 -31 -18 -38 -30 -12 -19 -12 -19 17 2 17 13 50 26
73 30 41 6 41 7 8 7 -19 0 -46 -4 -60 -9z"/>
<path d="M2394 191 c4 -7 -1 -11 -13 -11 -11 0 -22 -3 -25 -8 -2 -4 13 -6 35
-4 45 5 47 7 18 23 -15 8 -19 8 -15 0z"/>
<path d="M294 166 c-10 -8 -15 -18 -11 -22 4 -4 15 0 24 9 22 21 12 31 -13 13z"/>
<path d="M2317 163 c-10 -9 -9 -23 2 -23 5 0 11 7 15 15 5 15 -5 20 -17 8z"/>
<path d="M573 148 c2 -7 11 -11 18 -9 8 2 30 7 49 11 32 7 31 8 -18 9 -39 1
-52 -2 -49 -11z"/>
<path d="M62 126 c3 -21 23 -27 53 -15 18 7 17 8 -5 8 -15 1 -32 7 -39 14 -10
10 -12 8 -9 -7z"/>
<path d="M166 128 c5 -8 2 -9 -10 -5 -10 4 -15 3 -11 -4 4 -5 1 -18 -6 -27 -8
-9 -1 -6 13 7 23 20 29 41 12 41 -3 0 -2 -5 2 -12z"/>
<path d="M2092 123 c2 -10 11 -19 21 -21 23 -5 21 10 -4 26 -18 12 -20 11 -17
-5z"/>
<path d="M2165 124 l-30 -14 28 5 c15 3 27 3 27 1 0 -3 -12 -12 -27 -20 -17
-9 -22 -15 -12 -16 18 0 64 46 52 53 -4 3 -21 -1 -38 -9z"/>
<path d="M2216 118 c-3 -13 -6 -32 -6 -43 0 -25 36 -72 47 -62 4 5 2 11 -4 15
-18 12 -34 61 -27 88 3 13 4 24 1 24 -2 0 -7 -10 -11 -22z"/>
<path d="M359 113 c-13 -15 -12 -15 9 -4 38 20 91 -25 93 -79 0 -14 3 -19 6
-12 10 25 -7 82 -25 83 -10 0 -12 3 -4 6 6 2 12 9 12 15 0 7 -5 6 -14 -1 -10
-8 -16 -9 -21 -1 -10 15 -41 12 -56 -7z"/>
<path d="M606 114 c-16 -15 -13 -34 4 -34 5 0 7 7 3 16 -4 10 -1 15 8 13 8 -1
25 3 39 9 25 11 25 11 -7 11 -17 1 -39 -6 -47 -15z"/>
<path d="M720 121 c0 -6 5 -13 11 -16 19 -12 29 -54 19 -81 -6 -16 -6 -23 0
-19 19 12 23 74 6 100 -16 25 -36 33 -36 16z"/>
<path d="M1377 123 c-14 -14 -6 -19 23 -15 17 2 30 8 30 13 0 10 -43 12 -53 2z"/>
<path d="M1642 113 c-7 -10 -10 -12 -6 -4 4 9 2 12 -7 9 -19 -6 -24 -38 -6
-38 8 0 21 7 28 16 7 9 22 20 34 24 18 8 18 9 -5 9 -14 1 -31 -7 -38 -16z"/>
<path d="M1751 101 c15 -20 20 -39 17 -60 -2 -16 -1 -28 4 -25 14 9 9 82 -8
98 -26 27 -36 18 -13 -13z"/>
<path d="M2391 116 c-9 -11 -6 -12 14 -8 14 2 25 8 25 13 0 14 -26 11 -39 -5z"/>
<path d="M1197 104 c-9 -27 21 -94 41 -94 12 0 12 4 -3 20 -10 11 -21 37 -25
58 -5 31 -7 34 -13 16z"/>
<path d="M181 85 c0 -31 34 -83 46 -71 4 4 2 11 -5 15 -8 4 -20 26 -27 47 -14
38 -14 38 -14 9z"/>
<path d="M665 90 c-10 -11 -15 -26 -11 -36 8 -21 21 -9 30 29 8 32 5 33 -19 7z"/>
<path d="M1155 99 c-4 -6 -13 -8 -21 -5 -8 3 -14 1 -14 -4 0 -6 6 -10 13 -10
17 0 56 29 40 30 -6 0 -15 -5 -18 -11z"/>
<path d="M1682 90 c-26 -24 -28 -36 -7 -44 8 -3 15 -4 15 -3 0 1 4 17 9 35 11
38 11 38 -17 12z"/>
<path d="M270 74 c-14 -37 -12 -40 10 -16 22 23 26 42 10 42 -6 0 -15 -12 -20
-26z"/>
<path d="M1281 70 c-5 -16 -6 -30 -2 -30 15 0 43 39 36 49 -11 19 -23 12 -34
-19z"/>
<path d="M2306 93 c-9 -10 -7 -25 3 -19 5 4 12 0 14 -6 4 -8 6 -7 6 4 1 19
-13 31 -23 21z"/>
<path d="M1466 68 c5 -13 8 -34 7 -47 -1 -15 2 -20 9 -13 11 11 0 82 -14 82
-5 0 -6 -10 -2 -22z"/>
<path d="M1343 55 c4 -8 1 -17 -5 -21 -7 -5 -8 -2 -3 7 6 10 3 9 -11 -2 -10
-9 -26 -19 -34 -22 -9 -3 -4 -6 11 -6 32 -1 75 31 65 47 -10 17 -29 15 -23 -3z"/>
<path d="M1835 60 c-3 -5 -1 -10 4 -10 6 0 11 5 11 10 0 6 -2 10 -4 10 -3 0
-8 -4 -11 -10z"/>
<path d="M314 48 c-5 -7 -3 -8 6 -3 7 4 16 2 21 -6 7 -11 9 -10 9 4 0 19 -25
23 -36 5z"/>
<path d="M812 32 l-23 -24 23 7 c29 9 30 11 26 27 -2 9 -10 6 -26 -10z"/>
<path d="M98 43 c-20 -5 -24 -18 -8 -28 6 -3 10 -2 10 4 0 5 8 11 18 13 9 2
13 6 7 9 -5 3 -18 4 -27 2z"/>
<path d="M860 39 c-13 -8 -13 -10 0 -19 27 -18 39 -9 22 17 -5 8 -12 9 -22 2z"/>
<path d="M1095 40 c-8 -13 3 -30 18 -30 7 0 6 4 -3 10 -12 8 -10 10 8 10 13 0
20 4 17 10 -3 6 -12 10 -20 10 -8 0 -17 -4 -20 -10z"/>
<path d="M2116 43 c-10 -10 -7 -33 5 -33 5 0 8 4 5 9 -4 5 -1 11 6 13 8 3 9 6
1 11 -5 4 -13 4 -17 0z"/>
<path d="M2327 30 c-9 -11 -13 -20 -9 -20 4 0 15 9 25 20 9 11 13 20 9 20 -4
0 -15 -9 -25 -20z"/>
<path d="M576 31 c-4 -6 -13 -8 -21 -4 -8 3 -15 0 -15 -6 0 -6 6 -11 13 -11
18 0 43 18 35 25 -3 4 -9 2 -12 -4z"/>
<path d="M1860 32 c0 -5 9 -12 21 -15 13 -3 19 -1 16 6 -5 15 -37 22 -37 9z"/>
<path d="M285 20 c-19 -8 -19 -9 3 -9 12 -1 22 4 22 9 0 6 -1 10 -2 9 -2 0
-12 -4 -23 -9z"/>
<path d="M1815 20 c-3 -6 1 -7 9 -4 18 7 21 14 7 14 -6 0 -13 -4 -16 -10z"/>
<path d="M1368 3 c7 -3 16 -2 19 1 4 3 -2 6 -13 5 -11 0 -14 -3 -6 -6z"/>
<path d="M2388 3 c7 -3 16 -2 19 1 4 3 -2 6 -13 5 -11 0 -14 -3 -6 -6z"/>
</g>
</svg>
